<svg xmlns="http://www.w3.org/2000/svg" width="120" height="40" viewBox="0 0 120 40" fill="none">
  <path d="M110.194 9.99998e-05H9.59376C9.22706 9.99998e-05 8.86476 9.99996e-05 8.49896 0.00209999C8.19286 0.00409999 7.88916 0.00989997 7.58006 0.0148C6.90858 0.0226986 6.23867 0.0817696 5.57617 0.1915C4.91459 0.303619 4.27373 0.515001 3.67527 0.818498C3.07757 1.12458 2.53143 1.52228 2.05668 1.9972C1.57942 2.47073 1.18159 3.01808 0.87848 3.61819C0.574523 4.21716 0.363764 4.85902 0.253481 5.52159C0.142143 6.18329 0.0822303 6.85262 0.074282 7.52358C0.064982 7.83018 0.063982 8.13778 0.059082 8.44448V31.5586C0.063982 31.8691 0.064982 32.1699 0.074282 32.4806C0.0822379 33.1515 0.14215 33.8208 0.253481 34.4824C0.363468 35.1453 0.574239 35.7875 0.87848 36.3867C1.18145 36.9849 1.57934 37.5301 2.05668 38.001C2.52963 38.478 3.07612 38.876 3.67527 39.1797C4.27372 39.484 4.91451 39.6967 5.57617 39.8105C6.23878 39.9194 6.90862 39.9785 7.58006 39.9873C7.88906 39.9941 8.19286 39.998 8.49906 39.998C8.86476 40 9.22706 40 9.59376 40H110.193C110.553 40 110.918 40 111.277 39.998C111.582 39.998 111.895 39.9941 112.199 39.9873C112.87 39.9789 113.538 39.9198 114.199 39.8105C114.863 39.6958 115.506 39.4833 116.108 39.1797C116.706 38.8758 117.252 38.4779 117.725 38.001C118.201 37.5282 118.6 36.9835 118.906 36.3867C119.208 35.7871 119.417 35.145 119.525 34.4824C119.637 33.8207 119.699 33.1515 119.711 32.4805C119.715 32.1699 119.715 31.8691 119.715 31.5586C119.723 31.1953 119.723 30.834 119.723 30.4648V9.53628C119.723 9.16998 119.723 8.80678 119.715 8.44448C119.715 8.13778 119.715 7.83018 119.711 7.52348C119.699 6.85247 119.637 6.18328 119.526 5.52149C119.417 4.85937 119.208 4.21764 118.906 3.61829C118.289 2.41533 117.31 1.43613 116.108 0.818398C115.506 0.515646 114.863 0.304319 114.199 0.1914C113.538 0.0812029 112.87 0.0221281 112.199 0.0147C111.895 0.00979998 111.582 0.00389999 111.277 0.00199999C110.918 0 110.553 0 110.193 0L110.194 9.99998e-05Z" fill="#A6A6A6"/>
  <path d="M8.50196 39.1245C8.19726 39.1245 7.89996 39.1206 7.59766 39.1138C6.97146 39.1057 6.34672 39.0512 5.72856 38.9508C5.15216 38.8515 4.59379 38.6668 4.07187 38.4028C3.55471 38.141 3.08302 37.7978 2.67487 37.3862C2.26078 36.9795 1.91603 36.5078 1.65427 35.9897C1.38966 35.4683 1.20654 34.9094 1.11128 34.3325C1.00843 33.7126 0.952807 33.0858 0.944876 32.4575C0.938476 32.2466 0.930176 31.5445 0.930176 31.5445V8.44389C0.930176 8.44389 0.938976 7.75249 0.944876 7.54929C0.952495 6.922 1.00782 6.2962 1.11038 5.6773C1.20583 5.09882 1.38911 4.53832 1.65387 4.0152C1.91462 3.4975 2.25742 3.0254 2.66897 2.61721C3.08009 2.20513 3.55331 1.86011 4.07137 1.59471C4.59211 1.33161 5.14943 1.14826 5.72466 1.05081C6.34486 0.949432 6.97178 0.894645 7.60016 0.886912L8.50246 0.874512H111.271L112.184 0.887212C112.807 0.894609 113.428 0.948963 114.042 1.04981C114.623 1.14851 115.187 1.33317 115.713 1.59771C116.751 2.13254 117.596 2.97871 118.128 4.0176C118.389 4.53714 118.569 5.09309 118.663 5.6666C118.767 6.29056 118.825 6.92127 118.837 7.5537C118.84 7.83689 118.84 8.14109 118.84 8.44389C118.848 8.81889 118.848 9.17579 118.848 9.53569V30.4642C118.848 30.8275 118.848 31.182 118.84 31.5394C118.84 31.8646 118.84 32.1625 118.836 32.4691C118.825 33.0903 118.767 33.7098 118.665 34.3226C118.572 34.9037 118.39 35.4669 118.125 35.9926C117.862 36.505 117.519 36.9727 117.11 37.3783C116.701 37.7921 116.229 38.1374 115.71 38.4008C115.185 38.6668 114.623 38.8522 114.042 38.9506C113.424 39.0516 112.799 39.1061 112.173 39.1137C111.874 39.1207 111.575 39.1243 111.276 39.1244L110.192 39.1264L8.50196 39.1245Z" fill="black"/>
  <path d="M24.8276 20.301C24.8384 19.4664 25.0601 18.648 25.4721 17.9221C25.8841 17.1961 26.473 16.5862 27.1841 16.149C26.7324 15.5039 26.1364 14.9729 25.4436 14.5984C24.7508 14.2238 23.9802 14.016 23.193 13.9913C21.5137 13.815 19.8858 14.9961 19.03 14.9961C18.1578 14.9961 16.8403 14.0088 15.4216 14.038C14.504 14.0677 13.6096 14.3345 12.8257 14.8126C12.0418 15.2906 11.3951 15.9635 10.9487 16.7658C9.01466 20.1143 10.4573 25.0353 12.31 27.7419C13.2369 29.0673 14.32 30.5477 15.7375 30.4952C17.1245 30.4377 17.6425 29.6107 19.3169 29.6107C20.9757 29.6107 21.4617 30.4952 22.9079 30.4618C24.3963 30.4377 25.334 29.1306 26.2284 27.7927C26.8944 26.8484 27.4068 25.8046 27.7468 24.7002C26.8821 24.3345 26.1442 23.7223 25.6251 22.94C25.106 22.1577 24.8286 21.2399 24.8276 20.301ZM22.096 12.2112C22.9075 11.237 23.3073 9.98487 23.2105 8.72065C21.9707 8.85087 20.8254 9.44343 20.0029 10.3803C19.6008 10.8379 19.2928 11.3704 19.0966 11.9471C18.9003 12.5239 18.8197 13.1337 18.8592 13.7416C19.4794 13.748 20.0929 13.6136 20.6536 13.3485C21.2142 13.0834 21.7074 12.6946 22.096 12.2112ZM42.361 27.14H37.6276L36.4909 30.4964H34.4859L38.9694 18.0784H41.0524L45.5358 30.4964H43.4967L42.361 27.14ZM38.1178 25.5911H41.8698L40.0202 20.1439H39.9684L38.1178 25.5911ZM55.2183 25.9701C55.2183 28.7835 53.7124 30.5911 51.4401 30.5911C50.8644 30.6212 50.2919 30.4886 49.7881 30.2085C49.2843 29.9284 48.8695 29.512 48.5914 29.0071H48.5484V33.4915H46.69V21.4427H48.4889V22.9486H48.5231C48.814 22.4462 49.2357 22.032 49.7434 21.7501C50.251 21.4683 50.8255 21.3293 51.4058 21.348C53.7036 21.348 55.2183 23.1644 55.2183 25.97V25.9701ZM53.3081 25.9701C53.3081 24.1371 52.3609 22.932 50.9156 22.932C49.4957 22.932 48.5407 24.1624 48.5407 25.97C48.5407 27.7943 49.4957 29.016 50.9156 29.016C52.3609 29.016 53.3081 27.8197 53.3081 25.97V25.9701ZM65.1831 25.9701C65.1831 28.7835 63.6773 30.5911 61.4048 30.5911C60.8292 30.6212 60.2567 30.4886 59.7529 30.2085C59.2491 29.9283 58.8344 29.512 58.5562 29.0071H58.5132V33.4915H56.6548V21.4427H58.4536V22.9486H58.4878C58.7788 22.4462 59.2005 22.032 59.7081 21.7501C60.2158 21.4683 60.7903 21.3293 61.3706 21.348C63.6685 21.348 65.1831 23.1644 65.1831 25.97V25.9701ZM63.273 25.9701C63.273 24.1371 62.3257 22.932 60.8804 22.932C59.4604 22.932 58.5054 24.1624 58.5054 25.97C58.5054 27.7943 59.4604 29.016 60.8804 29.016C62.3257 29.016 63.273 27.8197 63.273 25.97V25.9701ZM71.7691 27.0365C71.9068 28.2679 73.1031 29.0765 74.7378 29.0765C76.3042 29.0765 77.4312 28.2679 77.4312 27.1575C77.4312 26.1936 76.7515 25.6165 75.1422 25.221L73.5327 24.8333C71.2525 24.2825 70.1939 23.2161 70.1939 21.4856C70.1939 19.343 72.0611 17.8714 74.7124 17.8714C77.3364 17.8714 79.1353 19.343 79.1958 21.4856H77.3198C77.2075 20.2464 76.1831 19.4983 74.686 19.4983C73.189 19.4983 72.1646 20.2552 72.1646 21.3567C72.1646 22.2347 72.8189 22.7513 74.4194 23.1467L75.7876 23.4827C78.3354 24.0852 79.3941 25.1087 79.3941 26.925C79.3941 29.2483 77.5435 30.7034 74.6001 30.7034C71.8461 30.7034 69.9868 29.2824 69.8667 27.0364L71.7691 27.0365ZM83.4048 19.3002V21.4427H85.1265V22.9144H83.4048V27.9056C83.4048 28.681 83.7495 29.0423 84.5064 29.0423C84.7107 29.0387 84.9148 29.0244 85.1177 28.9993V30.4623C84.7774 30.5258 84.4315 30.5546 84.0855 30.5481C82.2525 30.5481 81.5376 29.8597 81.5376 28.1038V22.9144H80.2212V21.4427H81.5376V19.3002H83.4048ZM86.1236 25.9701C86.1236 23.1214 87.8013 21.3314 90.4175 21.3314C93.0425 21.3314 94.7124 23.1214 94.7124 25.9701C94.7124 28.8265 93.0512 30.6087 90.4174 30.6087C87.7847 30.6087 86.1236 28.8265 86.1236 25.9701ZM92.8188 25.9701C92.8188 24.016 91.9233 22.8626 90.4174 22.8626C88.9117 22.8626 88.0171 24.0247 88.0171 25.9701C88.0171 27.932 88.9117 29.0765 90.4174 29.0765C91.9233 29.0765 92.8188 27.932 92.8188 25.9701ZM96.2445 21.4427H98.017V22.9837H98.06C98.18 22.5024 98.4619 22.0771 98.8585 21.7792C99.2551 21.4813 99.7422 21.3291 100.238 21.348C100.452 21.3473 100.666 21.3705 100.875 21.4173V23.1556C100.604 23.073 100.322 23.0351 100.04 23.0433C99.7695 23.0324 99.5004 23.08 99.2505 23.1828C99.0007 23.2857 98.7761 23.4415 98.5921 23.6394C98.4081 23.8373 98.2692 24.0726 98.1847 24.3293C98.1003 24.586 98.0724 24.8579 98.103 25.1263V30.4964H96.2445V21.4427ZM109.443 27.8372C109.193 29.4808 107.592 30.6087 105.544 30.6087C102.911 30.6087 101.276 28.8441 101.276 26.013C101.276 23.1732 102.919 21.3314 105.466 21.3314C107.971 21.3314 109.546 23.0521 109.546 25.7972V26.4339H103.152V26.5462C103.122 26.8794 103.164 27.2151 103.274 27.5309C103.384 27.8468 103.56 28.1356 103.791 28.3781C104.021 28.6207 104.3 28.8114 104.61 28.9377C104.92 29.064 105.253 29.123 105.587 29.1107C106.026 29.1519 106.467 29.0502 106.844 28.8207C107.221 28.5913 107.513 28.2463 107.678 27.8372H109.443ZM103.161 25.1351H107.687C107.704 24.8355 107.658 24.5357 107.553 24.2545C107.449 23.9733 107.287 23.7167 107.079 23.501C106.87 23.2852 106.619 23.1148 106.342 23.0006C106.064 22.8864 105.766 22.8308 105.466 22.8372C105.164 22.8354 104.864 22.8936 104.584 23.0083C104.304 23.1231 104.049 23.2921 103.835 23.5058C103.62 23.7194 103.45 23.9734 103.335 24.253C103.219 24.5327 103.16 24.8325 103.161 25.1351ZM37.8849 8.73136C38.2745 8.70339 38.6655 8.76225 39.0296 8.90368C39.3937 9.04512 39.7219 9.2656 39.9905 9.54924C40.2591 9.83287 40.4613 10.1726 40.5827 10.5439C40.7041 10.9151 40.7416 11.3087 40.6925 11.6962C40.6925 13.6024 39.6622 14.6982 37.8849 14.6982H35.7296V8.73125L37.8849 8.73136ZM36.6564 13.8543H37.7814C38.0598 13.871 38.3384 13.8253 38.5969 13.7207C38.8554 13.6161 39.0874 13.4551 39.2759 13.2496C39.4644 13.044 39.6046 12.799 39.6865 12.5324C39.7684 12.2658 39.7897 11.9843 39.7491 11.7083C39.7868 11.4335 39.7632 11.1538 39.6801 10.8891C39.597 10.6244 39.4564 10.3814 39.2683 10.1775C39.0803 9.97358 38.8494 9.81377 38.5924 9.70953C38.3353 9.60528 38.0584 9.55919 37.7814 9.57455H36.6564V13.8543ZM41.7394 12.4447C41.7111 12.1488 41.7449 11.8503 41.8387 11.5682C41.9326 11.2861 42.0843 11.0268 42.2843 10.8068C42.4842 10.5868 42.7279 10.411 42.9998 10.2908C43.2716 10.1705 43.5656 10.1084 43.8629 10.1084C44.1601 10.1084 44.4541 10.1705 44.726 10.2908C44.9978 10.411 45.2415 10.5868 45.4415 10.8068C45.6414 11.0268 45.7932 11.2861 45.887 11.5682C45.9808 11.8503 46.0147 12.1488 45.9864 12.4447C46.0153 12.741 45.9819 13.0401 45.8884 13.3226C45.7948 13.6052 45.6432 13.8651 45.4432 14.0856C45.2432 14.3061 44.9992 14.4823 44.7271 14.6028C44.4549 14.7234 44.1605 14.7857 43.8629 14.7857C43.5652 14.7857 43.2708 14.7234 42.9987 14.6028C42.7265 14.4823 42.4826 14.3061 42.2826 14.0856C42.0826 13.8651 41.9309 13.6052 41.8374 13.3226C41.7438 13.0401 41.7104 12.741 41.7394 12.4447ZM45.0724 12.4447C45.0724 11.4686 44.6339 10.8979 43.8644 10.8979C43.0919 10.8979 42.6574 11.4686 42.6574 12.4447C42.6574 13.4286 43.092 13.995 43.8644 13.995C44.6339 13.995 45.0724 13.4247 45.0724 12.4447ZM51.632 14.6981H50.7099L49.7794 11.3817H49.7091L48.7824 14.6981H47.8693L46.6281 10.1952H47.5294L48.3361 13.6311H48.4025L49.3283 10.1952H50.1808L51.1066 13.6311H51.1768L51.9795 10.1952H52.8682L51.632 14.6981ZM53.9121 10.1953H54.7676V10.9106H54.834C54.9467 10.6536 55.1367 10.4382 55.3776 10.2944C55.6185 10.1506 55.8982 10.0855 56.1778 10.1083C56.3969 10.0918 56.6169 10.1248 56.8215 10.2049C57.0261 10.285 57.2101 10.4101 57.3598 10.571C57.5094 10.7318 57.621 10.9243 57.6862 11.1341C57.7514 11.3439 57.7686 11.5657 57.7364 11.783V14.698H56.8477V12.0062C56.8477 11.2826 56.5332 10.9227 55.876 10.9227C55.7273 10.9158 55.5788 10.9412 55.4407 10.997C55.3027 11.0528 55.1783 11.1378 55.0762 11.2462C54.9741 11.3546 54.8966 11.4838 54.8491 11.6249C54.8016 11.766 54.7851 11.9158 54.8008 12.0638V14.6981H53.9121V10.1953ZM59.1524 8.43736H60.041V14.6981H59.1524V8.43736ZM61.2764 12.4447C61.2481 12.1488 61.282 11.8502 61.3758 11.5681C61.4697 11.286 61.6214 11.0266 61.8214 10.8066C62.0214 10.5866 62.2651 10.4108 62.537 10.2905C62.8089 10.1702 63.1029 10.108 63.4002 10.108C63.6975 10.108 63.9916 10.1702 64.2634 10.2905C64.5353 10.4108 64.7791 10.5866 64.979 10.8066C65.179 11.0266 65.3308 11.286 65.4246 11.5681C65.5185 11.8502 65.5523 12.1488 65.524 12.4447C65.5528 12.741 65.5193 13.0399 65.4256 13.3224C65.332 13.6049 65.1803 13.8647 64.9803 14.0851C64.7803 14.3055 64.5364 14.4816 64.2643 14.6021C63.9922 14.7226 63.6978 14.7849 63.4002 14.7849C63.1026 14.7849 62.8083 14.7226 62.5362 14.6021C62.264 14.4816 62.0201 14.3055 61.8201 14.0851C61.6201 13.8647 61.4684 13.6049 61.3748 13.3224C61.2812 13.0399 61.2476 12.741 61.2764 12.4447ZM64.6094 12.4447C64.6094 11.4686 64.1709 10.8979 63.4014 10.8979C62.6289 10.8979 62.1944 11.4686 62.1944 12.4447C62.1944 13.4286 62.629 13.995 63.4014 13.995C64.1709 13.995 64.6094 13.4247 64.6094 12.4447ZM66.4595 13.4247C66.4595 12.6141 67.063 12.1468 68.1343 12.0804L69.354 12.0101V11.6214C69.354 11.1458 69.0396 10.8774 68.4322 10.8774C67.9361 10.8774 67.5923 11.0594 67.4937 11.3778H66.6333C66.7241 10.6044 67.4517 10.1084 68.4732 10.1084C69.6021 10.1084 70.2388 10.6704 70.2388 11.6214V14.6981H69.3833V14.0653H69.313C69.1703 14.2923 68.9699 14.4774 68.7323 14.6016C68.4947 14.7258 68.2283 14.7847 67.9605 14.7723C67.7715 14.792 67.5804 14.7718 67.3997 14.7131C67.2189 14.6544 67.0525 14.5585 66.911 14.4315C66.7696 14.3046 66.6564 14.1494 66.5786 13.976C66.5008 13.8026 66.4603 13.6148 66.4595 13.4247ZM69.354 13.0399V12.6634L68.2544 12.7337C67.6343 12.7752 67.353 12.9862 67.353 13.3831C67.353 13.7884 67.7046 14.0243 68.188 14.0243C68.3297 14.0387 68.4727 14.0244 68.6088 13.9823C68.7448 13.9402 68.8709 13.8712 68.9797 13.7793C69.0885 13.6875 69.1777 13.5747 69.242 13.4477C69.3063 13.3207 69.3444 13.182 69.354 13.0399ZM71.4068 12.4447C71.4068 11.0218 72.1382 10.1206 73.2759 10.1206C73.5573 10.1076 73.8366 10.175 74.0811 10.3149C74.3257 10.4548 74.5253 10.6614 74.6568 10.9106H74.7232V8.43726H75.6118V14.698H74.7603V13.9865H74.69C74.5484 14.234 74.3418 14.4381 74.0926 14.5766C73.8433 14.7151 73.5609 14.7827 73.276 14.7722C72.1304 14.7722 71.4068 13.8708 71.4068 12.4446V12.4447ZM72.3248 12.4447C72.3248 13.3997 72.775 13.9745 73.5278 13.9745C74.2768 13.9745 74.7398 13.3915 74.7398 12.4485C74.7398 11.5101 74.272 10.9188 73.5278 10.9188C72.7798 10.9188 72.3248 11.4974 72.3248 12.4447ZM79.2886 12.4447C79.2603 12.1488 79.2941 11.8503 79.3879 11.5682C79.4818 11.2861 79.6335 11.0268 79.8335 10.8068C80.0334 10.5868 80.2771 10.411 80.549 10.2908C80.8208 10.1705 81.1148 10.1084 81.4121 10.1084C81.7093 10.1084 82.0033 10.1705 82.2752 10.2908C82.547 10.411 82.7907 10.5868 82.9907 10.8068C83.1906 11.0268 83.3424 11.2861 83.4362 11.5682C83.53 11.8503 83.5639 12.1488 83.5356 12.4447C83.5645 12.741 83.5311 13.0401 83.4376 13.3226C83.344 13.6052 83.1924 13.8651 82.9924 14.0856C82.7924 14.3061 82.5484 14.4823 82.2763 14.6028C82.0041 14.7234 81.7097 14.7857 81.4121 14.7857C81.1144 14.7857 80.82 14.7234 80.5479 14.6028C80.2757 14.4823 80.0318 14.3061 79.8318 14.0856C79.6318 13.8651 79.4801 13.6052 79.3866 13.3226C79.293 13.0401 79.2597 12.741 79.2886 12.4447ZM82.6216 12.4447C82.6216 11.4686 82.1831 10.8979 81.4136 10.8979C80.6411 10.8979 80.2066 11.4686 80.2066 12.4447C80.2066 13.4286 80.6412 13.995 81.4136 13.995C82.1831 13.995 82.6216 13.4247 82.6216 12.4447ZM84.728 10.1953H85.5835V10.9106H85.6499C85.7625 10.6536 85.9525 10.4382 86.1934 10.2944C86.4343 10.1506 86.714 10.0855 86.9937 10.1083C87.2127 10.0918 87.4327 10.1248 87.6373 10.2049C87.8419 10.285 88.0259 10.4101 88.1756 10.571C88.3253 10.7318 88.4368 10.9243 88.502 11.1341C88.5672 11.3439 88.5844 11.5657 88.5522 11.783V14.698H87.6636V12.0062C87.6636 11.2826 87.3491 10.9227 86.6919 10.9227C86.5431 10.9158 86.3946 10.9412 86.2566 10.997C86.1185 11.0528 85.9942 11.1378 85.892 11.2462C85.7899 11.3546 85.7124 11.4838 85.6649 11.6249C85.6174 11.766 85.6009 11.9158 85.6167 12.0638V14.6981H84.7281L84.728 10.1953ZM93.5737 9.07415V10.2158H94.5493V10.9642H93.5737V13.2796C93.5737 13.7513 93.768 13.9579 94.2104 13.9579C94.3237 13.9575 94.4368 13.9507 94.5492 13.9373V14.6776C94.3896 14.7062 94.228 14.7214 94.0658 14.723C93.0776 14.723 92.684 14.3753 92.684 13.5072V10.9642H91.9692V10.2157H92.684V9.07425L93.5737 9.07415ZM95.7631 8.43736H96.644V10.9188H96.7143C96.8325 10.6595 97.0277 10.4429 97.2734 10.2986C97.5191 10.1542 97.8033 10.0891 98.0873 10.1122C98.3053 10.1003 98.5232 10.1367 98.7255 10.2187C98.9278 10.3008 99.1095 10.4265 99.2576 10.5868C99.4057 10.7471 99.5166 10.9382 99.5824 11.1464C99.6482 11.3545 99.6672 11.5746 99.6381 11.7909V14.6981H98.7485V12.0101C98.7485 11.2908 98.4135 10.9267 97.7856 10.9267C97.6329 10.9141 97.4793 10.9351 97.3355 10.9882C97.1917 11.0412 97.0613 11.1251 96.9533 11.2338C96.8453 11.3425 96.7624 11.4736 96.7103 11.6177C96.6582 11.7618 96.6383 11.9156 96.6518 12.0682V14.6981H95.7631V8.43736ZM104.82 13.4822C104.699 13.8938 104.437 14.2498 104.081 14.488C103.724 14.7261 103.295 14.8313 102.869 14.785C102.572 14.7929 102.277 14.7361 102.005 14.6185C101.732 14.501 101.488 14.3256 101.291 14.1045C101.093 13.8833 100.945 13.6218 100.859 13.3379C100.772 13.0541 100.748 12.7548 100.789 12.4608C100.749 12.166 100.773 11.866 100.86 11.5813C100.946 11.2966 101.093 11.0339 101.29 10.8108C101.487 10.5877 101.729 10.4095 102.001 10.2883C102.273 10.1671 102.567 10.1057 102.865 10.1083C104.118 10.1083 104.874 10.9643 104.874 12.3782V12.6883H101.694V12.7381C101.68 12.9034 101.701 13.0697 101.755 13.2265C101.809 13.3832 101.895 13.5269 102.008 13.6484C102.121 13.7698 102.258 13.8664 102.41 13.9318C102.563 13.9971 102.727 14.03 102.893 14.0281C103.106 14.0537 103.321 14.0154 103.512 13.9182C103.702 13.821 103.86 13.6692 103.964 13.4822H104.82ZM101.694 12.0311H103.968C103.979 11.88 103.959 11.7282 103.908 11.5855C103.857 11.4428 103.777 11.3123 103.672 11.2025C103.568 11.0926 103.442 11.0058 103.302 10.9476C103.162 10.8894 103.011 10.8612 102.86 10.8647C102.706 10.8627 102.554 10.8916 102.411 10.9495C102.269 11.0075 102.14 11.0933 102.031 11.202C101.922 11.3107 101.836 11.4401 101.778 11.5825C101.721 11.7249 101.692 11.8774 101.694 12.0311Z" fill="white"/>
</svg>