<svg xmlns="http://www.w3.org/2000/svg" width="136" height="40" viewBox="0 0 136 40" fill="none">
  <path d="M130.067 40H5.26879C2.52326 40 0.276855 37.75 0.276855 35V5.00002C0.276855 2.25 2.52321 0 5.26879 0H130.067C132.812 0 135.059 2.25 135.059 5.00002V35C135.059 37.75 132.813 40 130.067 40" fill="black"/>
  <path d="M130.067 0H5.26879C2.52326 0 0.276855 2.25 0.276855 5.00002V35C0.276855 37.75 2.52321 40 5.26879 40H130.067C132.812 40 135.059 37.75 135.059 35V5.00002C135.059 2.25 132.813 0 130.067 0M130.067 0.799975C132.379 0.799975 134.26 2.68441 134.26 5.00002V35C134.26 37.316 132.379 39.2004 130.067 39.2004H5.26879C2.95695 39.2004 1.07557 37.316 1.07557 35V5.00002C1.07557 2.68441 2.95691 0.80002 5.26879 0.80002H130.067" fill="#A6A6A6"/>
  <path d="M47.6206 10.2432C47.6206 11.0811 47.3729 11.7482 46.8768 12.2459C46.3133 12.8377 45.5789 13.1338 44.676 13.1338C43.8114 13.1338 43.0763 12.8339 42.4718 12.233C41.8662 11.6326 41.564 10.8881 41.564 9.99983C41.564 9.11114 41.8662 8.36708 42.4718 7.7662C43.0763 7.16586 43.8114 6.86542 44.676 6.86542C45.1051 6.86542 45.5158 6.94946 45.9058 7.11705C46.2957 7.28504 46.6085 7.50805 46.8425 7.78732L46.316 8.31503C45.9194 7.84044 45.3734 7.60333 44.676 7.60333C44.0455 7.60333 43.5003 7.82525 43.0401 8.26937C42.5798 8.71394 42.3498 9.29046 42.3498 9.99983C42.3498 10.7093 42.5798 11.2857 43.0401 11.7303C43.5003 12.1745 44.0455 12.3963 44.676 12.3963C45.345 12.3963 45.9027 12.1732 46.3492 11.7264C46.639 11.4353 46.8066 11.0307 46.8514 10.5111H44.676V9.79045H47.5788C47.6069 9.94716 47.6205 10.0975 47.6205 10.2432" fill="white"/>
  <path d="M47.6169 10.2432H47.517C47.5162 11.0619 47.2775 11.6978 46.8024 12.1752L46.8014 12.176L46.801 12.1768C46.2554 12.7482 45.554 13.0326 44.6723 13.0338C43.8308 13.0326 43.1264 12.7451 42.5382 12.1623C41.9514 11.5783 41.6612 10.8654 41.66 9.9998C41.6612 9.1338 41.9514 8.42129 42.5382 7.83771C43.1264 7.25449 43.8308 6.96659 44.6723 6.96538C45.0884 6.96538 45.4847 7.04672 45.8626 7.20878C46.2408 7.3721 46.5397 7.58612 46.7623 7.85182L46.8388 7.78728L46.7682 7.71659L46.2416 8.24466L46.3122 8.315L46.3891 8.251C45.9741 7.7529 45.3915 7.50181 44.6723 7.50329C44.0183 7.50248 43.4431 7.73654 42.9672 8.19752C42.4868 8.65997 42.2454 9.26894 42.2462 9.9998C42.2454 10.7307 42.4868 11.3396 42.9672 11.8021C43.4431 12.2631 44.0183 12.4971 44.6723 12.4963C45.3633 12.4975 45.9523 12.2627 46.416 11.7971C46.7256 11.4861 46.9012 11.0553 46.9472 10.5197L46.9565 10.4111H44.7721V9.89041H47.5751V9.79041L47.4768 9.80798C47.5041 9.95962 47.517 10.1037 47.517 10.2432H47.7167C47.7167 10.0912 47.7026 9.93499 47.6733 9.77252L47.6585 9.69041H44.5725V10.6111H46.8477V10.5111L46.7483 10.5025C46.7042 11.0057 46.5443 11.3846 46.2748 11.6557C45.8458 12.0838 45.3193 12.2951 44.6723 12.2963C44.0651 12.2955 43.55 12.0861 43.1057 11.6584C42.6658 11.2322 42.447 10.6881 42.4459 9.9998C42.447 9.3115 42.6658 8.76739 43.1057 8.3412C43.55 7.91348 44.0651 7.70409 44.6723 7.70329C45.3474 7.7049 45.8572 7.92831 46.2359 8.37949L46.3061 8.46308L46.9094 7.85802L46.9741 7.79321L46.9152 7.72319C46.6699 7.4303 46.3431 7.19782 45.9414 7.02524C45.5389 6.85212 45.1142 6.76538 44.6723 6.76538C43.7847 6.76462 43.0188 7.0771 42.3975 7.69551C41.7739 8.3127 41.4596 9.0885 41.4605 9.9998C41.4596 10.9107 41.7739 11.6869 42.3979 12.3045C43.0188 12.9225 43.7847 13.2346 44.6723 13.2338C45.5966 13.2346 46.3634 12.9271 46.9453 12.315L46.873 12.2459L46.9437 12.3166C47.4608 11.799 47.7174 11.0998 47.7167 10.2432H47.6168M52.2187 7.7369H49.4907V9.63931H51.9509V10.3603H49.4907V12.2627H52.2187V12.9998H48.7217V6.9998H52.2187V7.7369Z" fill="white"/>
  <path d="M52.2219 7.73682V7.63682H49.3941V9.73923H51.8542V10.2599L49.394 10.2602V12.3626H52.122V12.8997H48.8247V7.09971H52.122V7.73682H52.2219V7.63682V7.73682H52.3217V6.89972H48.625V13.0997H52.3217V12.1626H49.5937V10.4602H52.0538V9.53923H49.5937V7.83681H52.3217V7.73682H52.2219ZM55.4678 12.9998H54.6976V7.73677H53.0245V6.99967H57.1409V7.73677H55.4678V12.9997" fill="white"/>
  <path d="M55.4665 12.9997V12.8997H54.7961V7.63682H53.123V7.09976H57.0398V7.63682H55.3667V12.9997H55.4665V12.8997V12.9997H55.5664V7.83681H57.2394V6.89972H52.9233V7.83677H54.5964V13.0997H55.5664V12.9997H55.4665M60.118 12.9997V6.99967H60.8875V12.9997H60.118" fill="white"/>
  <path d="M60.1203 12.9998H60.2202V7.09971H60.7899V12.8997H60.1203V12.9997H60.2202H60.1203V13.0997H60.9896V6.89972H60.0205V13.0997H60.1203V12.9997M64.3041 12.9998H63.5339V7.73677H61.8609V6.99967H65.9773V7.73677H64.3041V12.9997" fill="white"/>
  <path d="M64.3031 12.9999V12.8998H63.6327V7.63694H61.9597V7.09988H65.8763V7.63694H64.2033V12.9998H64.3031V12.8998V12.9998H64.4029V7.83694H66.076V6.89984H61.76V7.83689H63.433V13.0998H64.4029V12.9998H64.3031M69.9448 11.7222C70.3881 12.1717 70.9307 12.3963 71.5722 12.3963C72.2138 12.3963 72.7566 12.1717 73.1993 11.7222C73.6431 11.2726 73.8654 10.6978 73.8654 9.99983C73.8654 9.30188 73.6431 8.72716 73.1993 8.27755C72.7566 7.82795 72.2138 7.60333 71.5722 7.60333C70.9307 7.60333 70.3881 7.82795 69.9448 8.27755C69.5021 8.72716 69.2799 9.30183 69.2799 9.99983C69.2799 10.6978 69.5021 11.2726 69.9448 11.7222ZM73.7687 12.2244C73.1797 12.831 72.4474 13.1338 71.5722 13.1338C70.6963 13.1338 69.9642 12.831 69.3766 12.2244C68.7872 11.6185 68.494 10.8768 68.494 9.99983C68.494 9.12283 68.7872 8.38101 69.3766 7.77523C69.9642 7.16851 70.6963 6.86542 71.5722 6.86542C72.4427 6.86542 73.1731 7.17013 73.7648 7.77914C74.3556 8.38811 74.6512 9.12831 74.6512 9.99983C74.6512 10.8768 74.3563 11.6185 73.7687 12.2244Z" fill="white"/>
  <path d="M69.9432 11.7221L69.8722 11.7924C70.332 12.26 70.9057 12.4975 71.5706 12.4963C72.2352 12.4975 72.8096 12.26 73.2687 11.7924C73.7316 11.3244 73.9644 10.7189 73.9636 9.9998C73.9643 9.28072 73.7316 8.67521 73.2687 8.20718C72.8096 7.7396 72.2352 7.50212 71.5706 7.50329C70.9057 7.50212 70.332 7.7396 69.8722 8.20718C69.4104 8.67521 69.1772 9.28072 69.1784 9.9998C69.1772 10.7189 69.4104 11.3244 69.8722 11.7924L69.9432 11.7221L70.0142 11.6518C69.5907 11.2201 69.3789 10.6771 69.3781 9.9998C69.3789 9.32252 69.5907 8.77952 70.0141 8.34781C70.4416 7.91622 70.952 7.7045 71.5706 7.70333C72.1887 7.7045 72.7004 7.91622 73.1267 8.34781C73.551 8.77952 73.7628 9.32252 73.7636 9.9998C73.7628 10.6771 73.551 11.2201 73.1267 11.6518C72.7004 12.0834 72.1888 12.2951 71.5706 12.2963C70.952 12.2951 70.4416 12.0834 70.0141 11.6518L69.9432 11.7221ZM73.7671 12.2244L73.6957 12.1549C73.1232 12.7424 72.4232 13.0326 71.5706 13.0338C70.7177 13.0326 70.0177 12.7424 69.4463 12.1549L69.4436 12.1518L69.4463 12.1549C68.875 11.5654 68.5931 10.8545 68.5923 9.9998C68.5931 9.14508 68.875 8.43418 69.4463 7.84472C70.0177 7.25719 70.7177 6.96659 71.5706 6.96542C72.4177 6.96659 73.1161 7.2584 73.6918 7.84899C74.2651 8.4412 74.5486 9.15097 74.5498 9.9998C74.5486 10.8545 74.2659 11.5654 73.6957 12.1549L73.7671 12.2244L73.8389 12.2939C74.4441 11.6713 74.7502 10.899 74.7495 9.9998C74.7502 9.10571 74.4429 8.335 73.8349 7.70962C73.2265 7.08178 72.4645 6.7643 71.5706 6.76538C70.6721 6.7643 69.9077 7.0803 69.3032 7.70571V7.70526C68.6968 8.3283 68.3918 9.10059 68.3926 9.9998C68.3918 10.899 68.6968 11.6713 69.3032 12.2943L69.3059 12.2971L69.3032 12.2939C69.9077 12.9193 70.6721 13.2346 71.5706 13.2338C72.4688 13.2346 73.2331 12.9193 73.8389 12.2939L73.7671 12.2244ZM75.7299 12.9998V6.99976H76.6667L79.578 11.6673H79.6111L79.578 10.5111V6.99976H80.3482V12.9997H79.5448L76.499 8.10597H76.4658L76.499 9.26265V12.9997H75.7299" fill="white"/>
  <path d="M75.7308 12.9998H75.8306V7.09971H76.6122L79.5235 11.7673H79.7146L79.6787 10.5095V7.09976H80.2493V12.8997H79.6011L76.5553 8.00593H76.3642L76.4 9.26423V12.8997H75.7308V12.9997H75.8306H75.7308V13.0997H76.5997V9.26104L76.5666 8.10323L76.4667 8.10593V8.20592H76.4999V8.10593L76.4152 8.1591L79.4903 13.0997H80.449V6.89972H79.4791V10.5122L79.5122 11.67L79.612 11.6673V11.5673H79.5789V11.6673L79.6635 11.6142L76.7229 6.89972H75.631V13.0997H75.7309V12.9997M107.041 29.9997H108.904V17.4985H107.041L107.041 29.9997ZM123.821 22.0018L121.685 27.4216H121.621L119.405 22.0017H117.398L120.722 29.577L118.827 33.7907H120.771L125.892 22.0017L123.821 22.0018ZM113.256 28.5798C112.645 28.5798 111.794 28.2743 111.794 27.5181C111.794 26.5532 112.854 26.1833 113.769 26.1833C114.589 26.1833 114.973 26.3602 115.471 26.6017C115.326 27.7595 114.331 28.5798 113.256 28.5798ZM113.48 21.7282C112.132 21.7282 110.735 22.3235 110.157 23.6423L111.81 24.3337C112.163 23.6423 112.821 23.4169 113.512 23.4169C114.476 23.4169 115.455 23.9962 115.471 25.0255V25.1541C115.134 24.961 114.412 24.6716 113.528 24.6716C111.746 24.6716 109.931 25.6524 109.931 27.486C109.931 29.1587 111.393 30.2364 113.03 30.2364C114.283 30.2364 114.973 29.6735 115.407 29.0142H115.471V29.979H117.269V25.186C117.269 22.9669 115.616 21.7282 113.48 21.7282ZM101.967 23.5235H99.3173V19.2384H101.967C103.36 19.2384 104.15 20.3934 104.15 21.3809C104.15 22.3497 103.36 23.5235 101.967 23.5235ZM101.919 17.4985H97.4552V29.9997H99.3172V25.2634H101.919C103.984 25.2634 106.013 23.7661 106.013 21.3809C106.013 18.9958 103.984 17.4985 101.919 17.4985ZM77.5774 28.5821C76.2904 28.5821 75.2128 27.5028 75.2128 26.0204C75.2128 24.5224 76.2904 23.4267 77.5774 23.4267C78.8481 23.4267 79.8452 24.5224 79.8452 26.0204C79.8452 27.5028 78.8481 28.5821 77.5774 28.5821H77.5774ZM79.7165 22.7017H79.6522C79.2341 22.2024 78.4295 21.7513 77.4164 21.7513C75.2932 21.7513 73.3472 23.62 73.3472 26.0204C73.3472 28.4048 75.2932 30.2575 77.4164 30.2575C78.4295 30.2575 79.2341 29.8063 79.6522 29.2911H79.7165V29.9032C79.7165 31.5306 78.8481 32.4005 77.4487 32.4005C76.3067 32.4005 75.599 31.5786 75.3092 30.886L73.6849 31.5626C74.1514 32.6903 75.3899 34.0759 77.4487 34.0759C79.6362 34.0759 81.4859 32.7868 81.4859 29.6454V22.0091H79.7165V22.7017ZM82.7725 29.9997H84.6383V17.4981H82.7725V29.9997ZM87.3888 25.8755C87.3405 24.2321 88.6595 23.3946 89.6084 23.3946C90.3487 23.3946 90.9757 23.7649 91.1844 24.2971L87.3888 25.8755ZM93.1792 24.4579C92.8257 23.5071 91.7475 21.7513 89.544 21.7513C87.3565 21.7513 85.5391 23.4751 85.5391 26.0044C85.5391 28.3888 87.3405 30.2575 89.753 30.2575C91.6996 30.2575 92.8257 29.0653 93.292 28.3727L91.8443 27.4059C91.3621 28.1149 90.7022 28.5821 89.753 28.5821C88.8042 28.5821 88.1288 28.147 87.6942 27.2934L93.3719 24.9411L93.1792 24.4579ZM47.9441 23.0563V24.8606H52.2547C52.126 25.8755 51.7882 26.6165 51.2734 27.1321C50.6463 27.7606 49.6652 28.4532 47.9441 28.4532C45.2901 28.4532 43.2154 26.3106 43.2154 23.6524C43.2154 20.9942 45.2901 18.8513 47.9441 18.8513C49.3757 18.8513 50.4209 19.4153 51.1931 20.1403L52.4637 18.8677C51.3862 17.8364 49.9545 17.047 47.9441 17.047C44.3089 17.047 41.2529 20.0114 41.2529 23.6524C41.2529 27.2934 44.3089 30.2575 47.9441 30.2575C49.9065 30.2575 51.3862 29.6134 52.5441 28.4048C53.7344 27.2126 54.1045 25.5372 54.1045 24.1841C54.1045 23.7649 54.0724 23.3786 54.0077 23.0563H47.9441ZM59.0051 28.5821C57.7181 28.5821 56.6082 27.5188 56.6082 26.0044C56.6082 24.4739 57.7181 23.4267 59.0051 23.4267C60.2917 23.4267 61.4016 24.4739 61.4016 26.0044C61.4016 27.5188 60.2917 28.5821 59.0051 28.5821ZM59.0051 21.7513C56.6565 21.7513 54.7424 23.5395 54.7424 26.0044C54.7424 28.4532 56.6565 30.2575 59.0051 30.2575C61.3532 30.2575 63.2673 28.4532 63.2673 26.0044C63.2673 23.5395 61.3532 21.7513 59.0051 21.7513ZM68.3033 28.5821C67.0168 28.5821 65.9068 27.5188 65.9068 26.0044C65.9068 24.4739 67.0168 23.4267 68.3033 23.4267C69.5899 23.4267 70.6998 24.4739 70.6998 26.0044C70.6998 27.5188 69.5899 28.5821 68.3033 28.5821H68.3033ZM68.3033 21.7513C65.9548 21.7513 64.0411 23.5395 64.0411 26.0044C64.0411 28.4532 65.9548 30.2575 68.3033 30.2575C70.6515 30.2575 72.5657 28.4532 72.5657 26.0044C72.5657 23.5395 70.6515 21.7513 68.3033 21.7513H68.3033Z" fill="white"/>
  <path d="M10.7706 7.61173C10.4356 7.91451 10.2356 8.41952 10.2356 9.08988V8.93834V31.0594V30.9137C10.2356 31.5328 10.4071 32.0109 10.6976 32.3188L10.7718 32.3899V32.3902C11.0069 32.6028 11.3085 32.7156 11.654 32.7153C11.9917 32.7153 12.3716 32.6074 12.7725 32.3798L27.2643 24.1325L32.2421 21.2993C32.8743 20.9395 33.2292 20.4755 33.2885 20.0028V20.0008C33.2292 19.527 32.8743 19.0633 32.2421 18.7036L27.2639 15.8707L12.7725 7.62341C12.3708 7.39533 11.9906 7.28711 11.652 7.28711C11.3069 7.28711 11.0058 7.3996 10.7707 7.61173H10.7706Z" fill="#00C1FF"/>
  <path d="M10.7718 32.3898L10.6976 32.3187C10.4071 32.0109 10.2356 31.5327 10.2356 30.9137V31.0594V8.94373V9.08979C10.2356 8.41943 10.4356 7.91441 10.7706 7.61164L23.1404 20.0011L10.7718 32.3898Z" fill="url(#paint0_linear_32_336)"/>
  <path d="M27.262 24.1314L23.1382 20.0002L27.2616 15.8697L32.2399 18.7025C32.872 19.0623 33.2269 19.526 33.2863 19.9998V20.0017C33.2269 20.4744 32.872 20.9385 32.2399 21.2982L27.2621 24.1314" fill="url(#paint1_linear_32_336)"/>
  <path d="M11.6497 32.7148C11.3042 32.7152 11.0027 32.6023 10.7676 32.3898V32.3895L23.1362 20.0008L27.26 24.132L12.7682 32.3793C12.3673 32.607 11.9874 32.7148 11.6497 32.7148Z" fill="url(#paint2_linear_32_336)"/>
  <path d="M23.1367 20.0004L10.7668 7.61093C11.002 7.3988 11.3031 7.28631 11.6482 7.28631C11.9868 7.28631 12.367 7.39449 12.7687 7.62261L27.2601 15.8699L23.1367 20.0004" fill="url(#paint3_linear_32_336)"/>
  <path d="M11.653 32.8613C11.3075 32.8613 11.0055 32.7484 10.7704 32.5359L10.77 32.5363C10.769 32.5353 10.768 32.5344 10.7669 32.5336L10.7026 32.4707C10.7006 32.4687 10.6987 32.4664 10.6963 32.4641L10.7704 32.3898C11.0056 32.6023 11.3071 32.7152 11.6527 32.7148C11.9903 32.7148 12.3702 32.607 12.7711 32.3793L27.2629 24.132L27.3557 24.2251L27.2617 24.2785L12.7711 32.5254C12.4057 32.7328 12.0581 32.841 11.7442 32.859C11.7138 32.8605 11.6834 32.8613 11.653 32.8613" fill="url(#paint4_linear_32_336)"/>
  <path d="M10.6976 32.4637C10.4071 32.1559 10.2356 31.6782 10.2356 31.0587V30.913C10.2356 31.532 10.4071 32.0101 10.6976 32.318L10.7718 32.3891L10.6976 32.4637Z" fill="url(#paint5_linear_32_336)"/>
  <path d="M27.3536 24.2255L27.2607 24.1324L32.2386 21.2993C32.8708 20.9396 33.2257 20.4755 33.285 20.0028C33.285 20.1763 33.2464 20.3497 33.1696 20.5185C33.0147 20.8587 32.7043 21.1802 32.2386 21.4454L27.3536 24.2255" fill="url(#paint6_linear_32_336)"/>
  <path d="M33.2852 20.0002C33.2258 19.5264 32.8709 19.0627 32.2388 18.7029L27.2605 15.8701L27.3533 15.7771H27.3538L32.2388 18.5572C32.9357 18.9541 33.2848 19.4771 33.2852 20.0002Z" fill="url(#paint7_linear_32_336)"/>
  <path d="M10.2356 9.08942V8.93661C10.2356 8.88151 10.2371 8.82763 10.2399 8.77531V8.77293C10.2399 8.77221 10.2399 8.77145 10.2402 8.77064V8.76475C10.2702 8.23151 10.4356 7.81557 10.6976 7.53783L10.7706 7.61122C10.4356 7.91404 10.2356 8.41906 10.2356 9.08942Z" fill="url(#paint8_linear_32_336)"/>
  <path d="M27.2625 15.8698L12.7711 7.62237C12.3694 7.39429 11.9892 7.28611 11.6506 7.28611C11.3055 7.28611 11.0044 7.3986 10.7693 7.61073L10.6963 7.5373C10.7191 7.51313 10.7428 7.48982 10.7673 7.46741C10.7681 7.4666 10.7693 7.46579 10.77 7.46503C11.0033 7.25452 11.3012 7.14203 11.6433 7.14001H11.6506C11.9892 7.14001 12.3694 7.24823 12.7711 7.4764L27.3557 15.7764L27.3553 15.7767L27.2625 15.8698Z" fill="url(#paint9_linear_32_336)"/>
  <defs>
    <linearGradient id="paint0_linear_32_336" x1="18.1407" y1="8.70999" x2="7.48064" y2="19.3871" gradientUnits="userSpaceOnUse">
      <stop stop-color="#00A0FF"/>
      <stop offset="0.00657" stop-color="#00A1FF"/>
      <stop offset="0.2601" stop-color="#00BEFF"/>
      <stop offset="0.5122" stop-color="#00D2FF"/>
      <stop offset="0.7604" stop-color="#00DFFF"/>
      <stop offset="1" stop-color="#00E3FF"/>
    </linearGradient>
    <linearGradient id="paint1_linear_32_336" x1="34.0565" y1="19.9288" x2="9.89858" y2="19.9288" gradientUnits="userSpaceOnUse">
      <stop stop-color="#FFE000"/>
      <stop offset="0.4087" stop-color="#FFBD00"/>
      <stop offset="0.7754" stop-color="#FFA500"/>
      <stop offset="1" stop-color="#FF9C00"/>
    </linearGradient>
    <linearGradient id="paint2_linear_32_336" x1="25.0706" y1="23.9286" x2="7.00643" y2="41.8897" gradientUnits="userSpaceOnUse">
      <stop stop-color="#FF3A44"/>
      <stop offset="1" stop-color="#C31162"/>
    </linearGradient>
    <linearGradient id="paint3_linear_32_336" x1="7.57879" y1="5.77413" x2="15.6296" y2="13.7913" gradientUnits="userSpaceOnUse">
      <stop stop-color="#32A071"/>
      <stop offset="0.0685" stop-color="#2DA771"/>
      <stop offset="0.4762" stop-color="#15CF74"/>
      <stop offset="0.8009" stop-color="#06E775"/>
      <stop offset="1" stop-color="#00F076"/>
    </linearGradient>
    <linearGradient id="paint4_linear_32_336" x1="25.0645" y1="26.7942" x2="10.5978" y2="41.2843" gradientUnits="userSpaceOnUse">
      <stop stop-color="#CC2E36"/>
      <stop offset="1" stop-color="#9C0E4E"/>
    </linearGradient>
    <linearGradient id="paint5_linear_32_336" x1="11.8834" y1="8.70927" x2="2.49212" y2="18.1159" gradientUnits="userSpaceOnUse">
      <stop stop-color="#008DE0"/>
      <stop offset="0.00657" stop-color="#008DE0"/>
      <stop offset="0.2601" stop-color="#00A7E0"/>
      <stop offset="0.5122" stop-color="#00B8E0"/>
      <stop offset="0.7604" stop-color="#00C4E0"/>
      <stop offset="1" stop-color="#00C7E0"/>
    </linearGradient>
    <linearGradient id="paint6_linear_32_336" x1="34.0553" y1="20.0019" x2="9.89729" y2="20.0019" gradientUnits="userSpaceOnUse">
      <stop stop-color="#E0C500"/>
      <stop offset="0.4087" stop-color="#E0A600"/>
      <stop offset="0.7754" stop-color="#E09100"/>
      <stop offset="1" stop-color="#E08900"/>
    </linearGradient>
    <linearGradient id="paint7_linear_32_336" x1="34.0554" y1="20.0012" x2="9.89753" y2="20.0012" gradientUnits="userSpaceOnUse">
      <stop stop-color="#FFE840"/>
      <stop offset="0.4087" stop-color="#FFCE40"/>
      <stop offset="0.7754" stop-color="#FFBC40"/>
      <stop offset="1" stop-color="#FFB540"/>
    </linearGradient>
    <linearGradient id="paint8_linear_32_336" x1="11.8732" y1="8.7266" x2="2.82776" y2="17.3942" gradientUnits="userSpaceOnUse">
      <stop stop-color="#40B8FF"/>
      <stop offset="0.00657" stop-color="#40B9FF"/>
      <stop offset="0.2601" stop-color="#40CEFF"/>
      <stop offset="0.5122" stop-color="#40DDFF"/>
      <stop offset="0.7604" stop-color="#40E7FF"/>
      <stop offset="1" stop-color="#40EAFF"/>
    </linearGradient>
    <linearGradient id="paint9_linear_32_336" x1="7.56315" y1="8.39407" x2="14.0232" y2="14.8646" gradientUnits="userSpaceOnUse">
      <stop stop-color="#65B895"/>
      <stop offset="0.0685" stop-color="#62BD95"/>
      <stop offset="0.4762" stop-color="#50DB97"/>
      <stop offset="0.8009" stop-color="#44ED98"/>
      <stop offset="1" stop-color="#40F498"/>
    </linearGradient>
  </defs>
</svg>