<svg xmlns="http://www.w3.org/2000/svg" width="50" height="50" viewBox="0 0 100 100" fill="none">
  <path d="M89.13 28.6899H67.76V19.0699C67.76 18.0091 67.3386 16.9917 66.5884 16.2415C65.8383 15.4914 64.8209 15.0699 63.76 15.0699H36.26C35.1991 15.0699 34.1817 15.4914 33.4316 16.2415C32.6814 16.9917 32.26 18.0091 32.26 19.0699V28.6899H10.87C9.31481 28.6952 7.82481 29.3154 6.72512 30.4151C5.62542 31.5148 5.00528 33.0047 5.00001 34.5599V89.0999C4.99735 90.6603 5.61399 92.158 6.71454 93.2642C7.81509 94.3704 9.30962 94.9947 10.87 94.9999H89.13C90.6904 94.9947 92.1849 94.3704 93.2855 93.2642C94.386 92.158 95.0027 90.6603 95 89.0999V34.5599C94.9947 33.0047 94.3746 31.5148 93.2749 30.4151C92.1752 29.3154 90.6852 28.6952 89.13 28.6899ZM35 19.0699C35.0026 18.7472 35.132 18.4384 35.3602 18.2102C35.5885 17.9819 35.8973 17.8526 36.22 17.8499H63.72C64.0428 17.8526 64.3516 17.9819 64.5798 18.2102C64.808 18.4384 64.9374 18.7472 64.94 19.0699V28.6899H35V19.0699ZM10.87 31.4999H89.13C89.9381 31.5026 90.7123 31.8248 91.2838 32.3962C91.8552 32.9676 92.1774 33.7418 92.18 34.5499V53.5499H59.84V51.4799C59.84 51.1084 59.7664 50.7405 59.6233 50.3976C59.4802 50.0547 59.2705 49.7436 59.0064 49.4823C58.7423 49.221 58.429 49.0146 58.0846 48.8752C57.7402 48.7357 57.3715 48.666 57 48.6699H43C42.2547 48.6699 41.54 48.966 41.013 49.493C40.4861 50.02 40.19 50.7347 40.19 51.4799V53.5899H7.81001V34.5899C7.80604 34.1856 7.88227 33.7844 8.03427 33.4097C8.18627 33.035 8.41104 32.6941 8.69559 32.4068C8.98013 32.1194 9.3188 31.8914 9.69203 31.7357C10.0653 31.5801 10.4656 31.4999 10.87 31.4999ZM57 51.4799V58.4799H43V51.4799H57ZM89.1 92.1499H10.87C10.0602 92.15 9.28336 91.8289 8.70979 91.2572C8.13621 90.6855 7.81265 89.9098 7.81001 89.0999V56.4099H40.16V58.5199C40.16 58.8915 40.2337 59.2594 40.3767 59.6023C40.5198 59.9452 40.7295 60.2563 40.9936 60.5176C41.2577 60.7789 41.5711 60.9853 41.9155 61.1247C42.2598 61.2642 42.6285 61.3339 43 61.3299H57C57.7453 61.3299 58.46 61.0339 58.987 60.5069C59.514 59.9799 59.81 59.2652 59.81 58.5199V56.4099H92.19V89.0999C92.19 89.9115 91.8676 90.6898 91.2938 91.2637C90.7199 91.8376 89.9416 92.16 89.13 92.16L89.1 92.1499Z" fill="#D1003F"/>
</svg>