 <svg xmlns="http://www.w3.org/2000/svg" width="73" height="89" viewBox="0 0 73 89" fill="none">
  <g clip-path="url(#clip0_56_42)">
    <path d="M50.4032 8.95345C45.8127 8.95405 41.3254 10.3041 37.5089 12.8328C33.6923 15.3616 30.7178 18.9555 28.9615 23.1601C27.2052 27.3647 26.746 31.9911 27.6419 36.4545C28.5379 40.9178 30.7487 45.0175 33.9949 48.2353C37.2411 51.453 41.3769 53.6442 45.8792 54.5318C50.3816 55.4194 55.0483 54.9635 59.2893 53.2219C63.5304 51.4802 67.1552 48.5309 69.7055 44.747C72.2558 40.9631 73.617 36.5144 73.617 31.9636C73.6097 25.8626 71.1615 20.0136 66.8096 15.6999C62.4577 11.3861 56.5574 8.95987 50.4032 8.95345ZM50.4032 49.8117C46.8425 49.8111 43.362 48.7639 40.4017 46.8023C37.4414 44.8408 35.1343 42.053 33.7721 38.7917C32.4099 35.5303 32.0538 31.9417 32.7488 28.4797C33.4438 25.0177 35.1588 21.8377 37.6768 19.3419C40.1948 16.8461 43.4027 15.1465 46.895 14.4581C50.3873 13.7697 54.0071 14.1233 57.2967 15.4743C60.5863 16.8253 63.3979 19.1129 65.3761 22.048C67.3542 24.983 68.4101 28.4337 68.4101 31.9636C68.4044 36.696 66.5053 41.2329 63.1295 44.579C59.7537 47.925 55.1769 49.8069 50.4032 49.8117Z" fill="black" fill-opacity="0.03"/>
    <path d="M117.003 16.4717C117.003 -9.70243 95.5168 -31 69.1145 -31C61.4945 -30.9959 53.9852 -29.1912 47.2092 -25.7355C40.4332 -22.2799 34.5856 -17.2729 30.1513 -11.1296C21.1542 -7.02928 13.5318 -0.457413 8.18778 7.8069C2.84374 16.0712 0.00218495 25.6814 0 35.498C0 63.7733 23.2015 86.7743 51.7233 86.7743C56.0123 86.7757 60.2849 86.2504 64.4436 85.2105C70.5227 88.4268 77.4728 89.6527 84.2979 88.7127C91.123 87.7727 97.4728 84.715 102.437 79.9778C107.402 75.2405 110.726 69.0669 111.934 62.3416C113.142 55.6162 112.172 48.6844 109.162 42.5395C114.303 34.8028 117.03 25.736 117.003 16.4717ZM79.7918 83.8381C74.9826 83.836 70.2586 82.5794 66.0945 80.1943C65.6981 79.9665 65.2479 79.847 64.7897 79.8482C64.5569 79.8484 64.3252 79.879 64.1005 79.9393C60.0681 81.0372 55.9051 81.5927 51.7233 81.5911C26.0745 81.5972 5.20694 60.913 5.20694 35.498C5.20684 26.5575 7.82607 17.8094 12.7464 10.3168C17.6666 2.82412 24.6762 -3.09054 32.9232 -6.7085C33.3565 -6.90268 33.7281 -7.21026 33.9983 -7.59818C37.9301 -13.2244 43.1783 -17.8225 49.2939 -20.999C55.4095 -24.1755 62.2103 -25.8359 69.1145 -25.8381C92.6468 -25.8381 111.796 -6.85729 111.796 16.4717C111.816 25.2036 109.091 33.7248 104.001 40.8512C103.72 41.2468 103.557 41.7127 103.53 42.1959C103.502 42.679 103.613 43.16 103.848 43.584C106.136 47.7248 107.297 52.3848 107.216 57.1053C107.136 61.8259 105.817 66.4444 103.39 70.5063C100.962 74.5683 97.51 77.9336 93.3723 80.2712C89.2346 82.6088 84.5542 83.8381 79.7918 83.8381Z" fill="black" fill-opacity="0.03"/>
    <path d="M48.4921 44.501C46.0784 44.136 43.8203 43.0946 41.9839 41.4995C40.1475 39.9044 38.8094 37.8221 38.1272 35.498C38.048 35.227 37.8634 34.9983 37.6141 34.8622C37.3648 34.7261 37.0712 34.6937 36.7979 34.7723C36.5245 34.8508 36.2938 35.0337 36.1565 35.2809C36.0193 35.528 35.9866 35.8191 36.0658 36.0901C36.8652 38.8026 38.4293 41.2323 40.5742 43.0935C42.7191 44.9547 45.3556 46.1699 48.1735 46.5962C48.2276 46.5992 48.2818 46.5992 48.3358 46.5962C48.6202 46.6167 48.9011 46.5244 49.1167 46.3396C49.3324 46.1548 49.4652 45.8927 49.486 45.6108C49.5067 45.329 49.4136 45.0505 49.2272 44.8367C49.0408 44.6228 48.7764 44.4912 48.4921 44.4706V44.501Z" fill="black" fill-opacity="0.03"/>
  </g>
  <defs>
    <clipPath id="clip0_56_42">
      <rect width="117" height="120" fill="white" transform="translate(0 -31)"/>
    </clipPath>
  </defs>
</svg>