<svg xmlns="http://www.w3.org/2000/svg" width="50" height="50" viewBox="0 0 50 50" fill="none">
  <path d="M27.1289 33.3007H21.6406C21.1133 33.3007 20.6641 33.7304 20.6641 34.2773V48.6718C20.6641 49.1992 21.0937 49.6484 21.6406 49.6484H27.1289C27.6562 49.6484 28.1055 49.2187 28.1055 48.6718V34.2773C28.0859 33.7304 27.6562 33.3007 27.1289 33.3007ZM26.1523 47.6953H22.5977V35.2343H26.1523V47.6953Z" fill="#D1003F"/>
  <path d="M47.793 30.4101H42.3047C41.7773 30.4101 41.3281 30.8398 41.3281 31.3867V48.6914C41.3281 49.2187 41.7578 49.6679 42.3047 49.6679H47.793C48.3203 49.6679 48.7695 49.2382 48.7695 48.6914V31.3867C48.75 30.8398 48.3203 30.4101 47.793 30.4101ZM46.8164 47.6953H43.2617V32.3242H46.8164V47.6953Z" fill="#D1003F"/>
  <path d="M37.4609 24.1016H31.9727C31.4453 24.1016 30.9961 24.5312 30.9961 25.0781V48.6718C30.9961 49.1992 31.4258 49.6484 31.9727 49.6484H37.4609C37.9883 49.6484 38.4375 49.2187 38.4375 48.6718V25.0586C38.418 24.5312 37.9883 24.1016 37.4609 24.1016ZM36.4844 47.6953H32.9297V26.0352H36.4844V47.6953Z" fill="#D1003F"/>
  <path d="M11.1523 12.0898C14.3945 12.0898 17.0117 9.45312 17.0117 6.23047C17.0117 3.00781 14.375 0.371094 11.1523 0.371094C7.91016 0.371094 5.29297 3.00781 5.29297 6.23047C5.29297 9.45312 7.91016 12.0898 11.1523 12.0898ZM11.1523 2.30469C13.3203 2.30469 15.0781 4.0625 15.0781 6.23047C15.0781 8.39844 13.3203 10.1562 11.1523 10.1562C8.98437 10.1562 7.20703 8.39844 7.20703 6.23047C7.20703 4.0625 8.98437 2.30469 11.1523 2.30469Z" fill="#D1003F"/>
  <path d="M18.2812 19.4532C17.7344 19.4141 17.2851 19.8243 17.2461 20.3516L16.3281 33.6329C16.3281 33.6719 16.3086 33.711 16.3086 33.7305L15.4687 46.6407C15.4297 47.2267 14.9414 47.6759 14.3554 47.6759H7.92968C7.34374 47.6759 6.85546 47.2267 6.8164 46.6407L5.97656 33.7305C5.95702 33.3204 5.68359 32.9883 5.29296 32.8712C4.04296 32.4805 4.04296 32.4805 3.94531 31.1133L3.18359 17.4219V17.2657H3.20312C4.33593 16.9141 6.30859 16.3086 7.26562 15.9961L10.4883 19.0235C10.8594 19.375 11.4453 19.375 11.8164 19.0235L15.0781 15.9571L24.6093 18.1055C24.7461 18.1446 24.8828 18.1446 25.0195 18.1055L33.9648 16.2696C34.4921 16.1719 34.8242 15.6446 34.7265 15.1368C34.6289 14.6094 34.1015 14.2774 33.5937 14.375L24.8437 16.1719L15 13.9453C14.6875 13.8672 14.3554 13.9649 14.1211 14.1797L11.1523 16.9922L8.16405 14.1797C7.91015 13.9453 7.53905 13.8477 7.20702 13.9649C7.20702 13.9649 4.17968 14.9414 2.63672 15.3907C1.75781 15.6641 1.25 16.3477 1.25 17.2657C1.25 17.3438 1.25 17.5 1.25 17.5196L2.01172 31.0352L2.03125 31.2696C2.16797 33.3204 2.51953 33.9454 4.10156 34.5313L4.90234 46.797C4.99999 48.3985 6.34765 49.6485 7.94921 49.6485H14.375C15.9765 49.6485 17.3047 48.3985 17.4219 46.797L18.2617 33.9844C18.2617 33.9454 18.2617 33.9258 18.2812 33.8868L19.1992 20.5079C19.1992 19.961 18.8086 19.4922 18.2812 19.4532Z" fill="#D1003F"/>
</svg>