  <svg xmlns="http://www.w3.org/2000/svg" width="81" height="132" viewBox="0 0 81 132" fill="none">
  <g clip-path="url(#clip0_56_49)">
    <path d="M54.5876 112.014C58.6048 104.099 59.8329 96.1667 58.2351 88.4404C56.8262 81.636 53.3253 75.0083 47.546 68.1912C47.436 67.6327 47.2828 67.0836 47.0876 66.5487C46.1761 64.0833 44.3187 62.2084 42.5077 60.3808C41.2695 59.1308 40.0979 57.9479 39.2758 56.6328C38.5429 55.461 38.0435 53.9612 37.512 52.3742C36.7254 50.0237 35.8326 47.3577 33.9439 45.2654C32.2785 43.4237 30.0056 42.3537 27.8098 41.3196C26.1197 40.5374 24.5357 39.7817 23.2586 38.7309C22.2012 37.8609 21.2773 36.6658 20.2869 35.3886C18.7591 33.4168 17.185 31.3827 14.8233 30.2243C12.4617 29.066 9.91433 29.0628 7.42921 29.0469C5.81684 29.0403 4.29628 29.0333 2.99107 28.7016C1.64122 28.3575 0.268324 27.6081 -1.18703 26.8183L-1.2161 26.7944C-3.3179 25.6461 -5.50645 24.4477 -8.01656 24.2622C-10.5857 24.0707 -13.0436 24.9623 -15.2094 25.7506L-15.24 25.7619C-16.7782 26.3243 -18.2222 26.8426 -19.5531 26.9642C-21.0553 27.094 -22.6747 26.811 -24.3924 26.514C-26.6981 26.1135 -29.0822 25.6971 -31.3908 26.2887C-34.2076 27.0128 -36.3502 28.8209 -38.2518 30.4287C-39.3608 31.3655 -40.4082 32.2497 -41.4007 32.7562C-42.7478 33.401 -44.1372 33.9539 -45.5592 34.4112L-45.6141 34.4299C-48.3115 35.3496 -51.0802 36.3079 -52.5281 38.4898C-55.365 42.7895 -53.2777 47.077 -50.666 50.1717C-51.1298 51.9035 -51.083 53.7331 -50.5313 55.4406C-49.9795 57.148 -48.9463 58.6606 -47.5559 59.7962L31.8569 125.134C31.955 125.214 32.0531 125.295 32.1586 125.367L32.264 125.453C36.2994 128.488 41.3725 128.035 45.8521 124.238C49.0749 121.506 54.2966 112.59 54.5876 112.014ZM-49.1994 40.6871C-48.5057 39.6366 -46.3796 38.9039 -44.3018 38.1893L-44.2631 38.1755C-42.6638 37.6617 -41.1021 37.038 -39.5892 36.3088C-38.1831 35.5921 -36.9016 34.5234 -35.6655 33.469C-34.0245 32.0818 -32.3266 30.6439 -30.4023 30.1528C-28.923 29.773 -27.054 30.0971 -25.0762 30.4408C-23.1894 30.7766 -21.2276 31.1101 -19.2152 30.9378C-17.365 30.7811 -15.5941 30.1395 -13.8814 29.5168L-13.8508 29.5055C-11.9735 28.8235 -10.0336 28.1171 -8.31888 28.2474C-6.67018 28.369 -4.95489 29.3057 -3.13716 30.2994L-3.10627 30.3248C-1.50071 31.1987 0.162867 32.102 1.99948 32.5729C3.78088 33.0257 5.62235 33.0352 7.40628 33.0369C9.52565 33.0529 11.515 33.0716 13.0555 33.8098C14.596 34.548 15.8045 36.1414 17.1203 37.8415C18.1927 39.2226 19.3001 40.6539 20.7026 41.8078C22.3668 43.177 24.2611 44.0665 26.0927 44.9286C28.017 45.8335 29.8274 46.6843 30.9606 47.936C32.2889 49.406 33.0073 51.5544 33.7017 53.6283C34.2833 55.3691 34.8854 57.1663 35.8698 58.7396C36.9188 60.427 38.3108 61.8308 39.6509 63.1828L39.6691 63.1977C41.2276 64.7842 42.7093 66.2678 43.3206 67.9206C43.4869 68.3824 43.6043 68.8602 43.6709 69.3463C43.7795 70.1344 43.8168 70.9306 43.7822 71.7252C43.758 72.5508 43.6869 73.3927 43.6178 74.2209L43.6147 74.258C43.4647 76.0325 43.3073 77.8679 43.5483 79.6782C43.7952 81.5481 44.4278 83.3157 45.0417 85.0283C45.8162 87.1863 46.5459 89.2284 46.3668 91.0976C46.1876 92.9668 45.1004 94.8067 43.9481 96.7664C43.0161 98.3508 42.0512 99.9902 41.4662 101.808C40.8813 103.627 40.725 105.49 40.5666 107.316C40.372 109.589 40.1822 111.741 39.2455 113.413C39.1932 113.51 39.1358 113.606 39.0765 113.7C38.4742 114.643 37.5828 115.482 36.5645 116.305C36.3493 116.478 36.1308 116.651 35.9071 116.823C35.7394 116.952 35.5685 117.082 35.3975 117.212C35.2903 117.295 35.1813 117.375 35.0741 117.457C35.0367 117.484 34.9996 117.515 34.9621 117.542C34.8457 117.631 34.7376 117.722 34.6318 117.817L34.5656 117.875C34.466 117.967 34.3701 118.061 34.2811 118.158C34.2661 118.176 34.2497 118.196 34.2348 118.215C34.1572 118.309 34.0796 118.403 34.002 118.498L33.9692 118.537C33.8871 118.637 33.8141 118.744 33.7426 118.85L33.6889 118.915C33.6207 119.02 33.5525 119.125 33.4879 119.233L33.4611 119.266C33.4025 119.367 33.3427 119.473 33.2937 119.569L33.2614 119.631C33.2049 119.737 33.1521 119.845 33.1008 119.952C33.0859 119.97 33.08 119.996 33.0687 120.017C33.0189 120.122 32.9649 120.236 32.9258 120.331C32.8436 120.191 32.7661 120.048 32.6949 119.901L32.632 119.77C32.5794 119.66 32.532 119.551 32.4875 119.438L32.4324 119.302C32.3778 119.153 32.3246 119.003 32.2799 118.854L32.269 118.845C32.2218 118.688 32.1831 118.531 32.1492 118.372L32.122 118.231C32.0986 118.112 32.0784 117.992 32.0605 117.876C32.0541 117.829 32.0444 117.781 32.0414 117.733C32.0225 117.575 32.0089 117.402 32.001 117.253C31.995 117.09 31.9956 116.926 32.0029 116.761C32.0032 116.713 32.007 116.668 32.0106 116.619C32.017 116.496 32.027 116.377 32.0399 116.254L32.0576 116.11C32.0802 115.949 32.1077 115.786 32.1475 115.63C32.1819 115.47 32.2262 115.309 32.2742 115.151C32.2862 115.103 32.3018 115.058 32.3171 115.01C32.3557 114.892 32.3991 114.773 32.4432 114.66L32.4964 114.521C32.563 114.366 32.6315 114.213 32.7084 114.06C32.8453 113.794 33.0017 113.538 33.1762 113.295C33.212 113.252 33.2493 113.206 33.2706 113.151C38.9817 103.505 41.51 92.3022 40.4977 81.1294C39.4854 69.9566 34.9836 59.3795 27.6299 50.8956C25.6658 48.6425 23.5187 46.5556 21.2107 44.6561C11.456 36.6305 -0.819985 32.3109 -13.4425 32.4627C-26.0649 32.6145 -38.2191 37.2279 -47.7518 45.4855C-47.8981 45.6115 -48.0404 45.7438 -48.1758 45.8787C-48.2161 45.9277 -48.2549 45.9749 -48.3065 46.0115C-48.3885 46.1113 -48.487 46.1976 -48.5745 46.2929C-48.5864 46.3074 -48.5984 46.3219 -48.6118 46.3382C-49.6822 44.7732 -50.5079 42.6886 -49.1994 40.6871ZM-45.019 56.7127C-45.622 56.2148 -46.1094 55.5917 -46.4475 54.8868C-46.7855 54.1818 -46.9661 53.412 -46.9766 52.6308C-46.9871 51.8496 -46.8272 51.0758 -46.5082 50.3631C-46.1892 49.6505 -45.7186 49.016 -45.1292 48.504C-39.1211 43.3067 -31.9462 39.6353 -24.2122 37.8008C-16.4783 35.9664 -8.41297 36.0228 -0.699406 37.9655C7.01416 39.9081 14.1488 43.6796 20.1004 48.9607C26.0519 54.2417 30.645 60.8768 33.4907 68.3039C33.8354 69.1958 34.1504 70.1028 34.4357 71.0249C35.4989 74.4187 36.1963 77.9159 36.5159 81.4568C37.4864 91.7723 35.1642 102.125 29.8825 111.029C29.6181 111.409 29.3786 111.805 29.1654 112.216C29.0829 112.379 29.004 112.545 28.9284 112.711C28.9065 112.76 28.8864 112.81 28.8644 112.859C28.8114 112.983 28.7602 113.108 28.7123 113.233C28.6937 113.281 28.6736 113.332 28.6568 113.382C28.5933 113.552 28.5349 113.723 28.4831 113.893C28.4313 114.063 28.3847 114.235 28.3398 114.408L28.3048 114.561C28.2741 114.691 28.2464 114.818 28.2209 114.949C28.211 115.001 28.1993 115.053 28.1909 115.103C28.1597 115.278 28.1317 115.453 28.1089 115.629C28.086 115.805 28.0698 115.98 28.0569 116.155L28.0472 116.311C28.0382 116.441 28.0328 116.573 28.0289 116.704L28.0251 116.801L-45.019 56.7127ZM43.2663 121.186C41.7597 122.462 39.0139 124.2 36.1357 123.088C36.1521 123.068 36.1558 123.037 36.1668 123.013L36.363 122.545C36.5522 122.022 36.8001 121.521 37.1021 121.054C37.1863 120.938 37.2863 120.834 37.3991 120.745C37.6509 120.554 37.903 120.366 38.1545 120.171C39.7908 118.923 41.3979 117.581 42.5108 115.798C42.5959 115.662 42.6807 115.522 42.7586 115.379C43.3227 114.346 43.7344 113.237 43.9807 112.086C44.2742 110.632 44.468 109.16 44.5605 107.679C44.6374 106.845 44.7039 106.023 44.8097 105.247C44.9042 104.502 45.0623 103.767 45.2825 103.05C45.7316 101.653 46.5464 100.27 47.4051 98.8077C48.7324 96.5539 50.0946 94.2317 50.3528 91.4998C50.6111 88.768 49.6993 86.1807 48.81 83.7031C48.2455 82.1193 47.7114 80.6245 47.519 79.1735C47.4973 79.0036 47.4756 78.8337 47.4647 78.6544C47.4592 78.5981 47.4585 78.5398 47.4545 78.4817C47.4494 78.362 47.4396 78.2443 47.4414 78.1273L47.4384 77.9088C47.4376 77.7987 47.4338 77.6921 47.4346 77.5802L47.4395 77.3409C47.4408 77.2356 47.4422 77.1302 47.4466 77.0213L47.4565 76.7648L47.4723 76.4494L47.4894 76.1805L47.51 75.8629L47.5304 75.5938L47.5725 75.2574C47.5785 75.165 47.5878 75.0722 47.5982 74.9744L47.6185 74.7386C51.1228 79.6293 53.3304 84.4112 54.3307 89.246C55.7601 96.1586 54.6804 103.014 51.0325 110.199C50.5462 111.116 45.7305 119.098 43.2663 121.186Z" fill="black" fill-opacity="0.03"/>
    <path d="M2.90827 82.3209C2.25575 81.3793 1.26096 80.7298 0.136711 80.5114C-0.987538 80.2929 -2.15196 80.5228 -3.10744 81.1519C-4.06293 81.781 -4.73359 82.7594 -4.97596 83.8776C-5.21833 84.9959 -5.01315 86.1652 -4.40432 87.1356C-4.35989 87.2018 -4.30682 87.2618 -4.24652 87.3141C-4.09373 87.4388 -3.90133 87.5046 -3.7043 87.4996C-3.50728 87.4945 -3.31872 87.419 -3.17293 87.2866C-3.02714 87.1542 -2.93379 86.9739 -2.90987 86.7783C-2.88596 86.5828 -2.93306 86.3851 -3.04261 86.2211C-3.34109 85.7691 -3.49889 85.2389 -3.49605 84.6977C-3.49322 84.1565 -3.32987 83.6286 -3.02667 83.1807C-2.72348 82.7328 -2.29406 82.385 -1.79275 82.1815C-1.29144 81.9779 -0.740756 81.9277 -0.210373 82.0371C0.32001 82.1466 0.80626 82.4107 1.18686 82.7963C1.56746 83.1818 1.82531 83.6713 1.92779 84.2029C2.03027 84.7345 1.97277 85.2843 1.76256 85.7827C1.55236 86.2811 1.19889 86.7058 0.746892 87.003C0.400872 87.2334 0.00585822 87.3801 -0.406934 87.4315C-0.514166 87.4451 -0.617632 87.4797 -0.711419 87.5334C-0.805207 87.587 -0.887484 87.6586 -0.953548 87.744C-1.08697 87.9166 -1.14626 88.1352 -1.11838 88.3517C-1.0905 88.5683 -0.977736 88.765 -0.804887 88.8987C-0.632037 89.0323 -0.413265 89.092 -0.196698 89.0644C0.54065 88.97 1.24154 88.6895 1.84001 88.2494C2.43848 87.8093 2.91486 87.224 3.22431 86.5487C3.53377 85.8733 3.66613 85.1301 3.60893 84.3889C3.55174 83.6477 3.30686 82.9329 2.89737 82.3119L2.90827 82.3209Z" fill="black" fill-opacity="0.03"/>
    <path d="M25.9704 80.944C25.9784 80.2242 25.8088 79.5133 25.4767 78.8741C25.1445 78.235 24.6599 77.6873 24.0659 77.2795C23.4719 76.8718 22.7867 76.6166 22.071 76.5365C21.3553 76.4564 20.6312 76.5539 19.9627 76.8203C19.2943 77.0867 18.7021 77.5139 18.2386 78.064C17.7751 78.6141 17.4546 79.2702 17.3054 79.9741C17.1563 80.6781 17.1831 81.4082 17.3835 82.0999C17.5839 82.7916 17.9517 83.4235 18.4543 83.9397C18.5711 84.057 18.6905 84.1674 18.8158 84.2706C19.5833 84.9028 20.5436 85.2539 21.5373 85.2656C21.7557 85.2687 21.9663 85.1849 22.1227 85.0326C22.2791 84.8804 22.3685 84.6722 22.3712 84.4538C22.374 84.2354 22.2898 84.0247 22.1373 83.8681C21.9847 83.7116 21.7763 83.6218 21.5578 83.6188C20.9654 83.6097 20.3917 83.4081 19.9234 83.0445C19.4551 82.6809 19.1176 82.1751 18.9618 81.6033C18.8061 81.0316 18.8406 80.4251 19.0601 79.8753C19.2796 79.3255 19.6723 78.8623 20.1787 78.5557C20.6851 78.249 21.2779 78.1156 21.8674 78.1756C22.4569 78.2355 23.0113 78.4856 23.4467 78.888C23.8821 79.2904 24.1749 79.8233 24.281 80.4062C24.3871 80.9891 24.3006 81.5903 24.0346 82.1192C23.9841 82.2157 23.9533 82.3214 23.944 82.43C23.9347 82.5386 23.9471 82.648 23.9804 82.7519C24.0138 82.8557 24.0675 82.9519 24.1383 83.0349C24.2092 83.1179 24.2958 83.186 24.3932 83.2353C24.4905 83.2846 24.5967 83.314 24.7055 83.3219C24.8143 83.3298 24.9235 83.3161 25.0269 83.2814C25.1302 83.2467 25.2256 83.1918 25.3075 83.1199C25.3893 83.048 25.4561 82.9606 25.5038 82.8626C25.805 82.2677 25.9646 81.6111 25.9704 80.944Z" fill="black" fill-opacity="0.03"/>
    <path d="M0.683842 57.56C0.0876786 57.079 -0.597872 56.7209 -1.33307 56.5066C-2.06826 56.2923 -2.83847 56.2259 -3.59904 56.3113C-3.70979 56.3185 -3.81791 56.348 -3.91688 56.3981C-4.01585 56.4482 -4.10363 56.5178 -4.17495 56.6027C-4.24626 56.6876 -4.29963 56.7861 -4.33184 56.8922C-4.36405 56.9984 -4.37444 57.1099 -4.36238 57.2203C-4.35032 57.3306 -4.31606 57.4374 -4.26167 57.5342C-4.20727 57.631 -4.13387 57.7158 -4.04586 57.7836C-3.95786 57.8514 -3.85709 57.9007 -3.7496 57.9285C-3.64211 57.9564 -3.53013 57.9622 -3.4204 57.9456C-2.51819 57.8467 -1.60781 58.0441 -0.826864 58.5081C-0.0459189 58.972 0.563149 59.6772 0.908283 60.5171C1.25342 61.357 1.31586 62.2859 1.08617 63.1635C0.856481 64.0411 0.34715 64.8197 -0.364847 65.3815C-1.07684 65.9433 -1.95281 66.2579 -2.86034 66.2776C-3.76787 66.2974 -4.65765 66.0213 -5.39519 65.491C-6.13273 64.9607 -6.67795 64.2052 -6.94843 63.3385C-7.21892 62.4717 -7.19997 61.541 -6.89446 60.687C-6.82071 60.4814 -6.83169 60.2549 -6.925 60.0572C-7.01831 59.8595 -7.18629 59.7068 -7.392 59.6328C-7.59771 59.5587 -7.82429 59.5693 -8.0219 59.6623C-8.21951 59.7553 -8.37196 59.9229 -8.44571 60.1285C-8.84944 61.2586 -8.89433 62.4863 -8.57425 63.644C-8.25418 64.8017 -7.58472 65.833 -6.65725 66.5973L-6.59912 66.6451C-5.39266 67.6124 -3.85203 68.0615 -2.31617 67.8936C-0.7803 67.7258 0.624999 66.9549 1.59058 65.7503C2.55616 64.5458 3.00293 63.0064 2.83261 61.4707C2.66228 59.9351 1.88881 58.529 0.682351 57.5618L0.683842 57.56Z" fill="black" fill-opacity="0.03"/>
    <path d="M4.41235 52.7652C4.45314 52.8652 4.51332 52.9562 4.58943 53.0329C4.66554 53.1097 4.75607 53.1706 4.8558 53.2122C4.95553 53.2538 5.06248 53.2753 5.17048 53.2754C5.27849 53.2755 5.38541 53.2542 5.48508 53.2128C6.12371 52.9496 6.84117 52.9507 7.47978 53.2161C8.11839 53.4814 8.62589 53.9892 8.89073 54.6279C8.97451 54.8295 9.13493 54.9897 9.3367 55.0733C9.53847 55.1569 9.76505 55.157 9.96661 55.0735C10.1682 54.9901 10.3282 54.83 10.4115 54.6284C10.4948 54.4269 10.4945 54.2003 10.4107 53.9987C10.197 53.4826 9.88382 53.0135 9.48893 52.6181C9.09405 52.2228 8.62523 51.909 8.10928 51.6946C7.59332 51.4803 7.04034 51.3696 6.48192 51.3689C5.9235 51.3682 5.37059 51.4775 4.85478 51.6905C4.75494 51.7317 4.66425 51.7922 4.58792 51.8686C4.5116 51.945 4.45114 52.0357 4.41003 52.1356C4.36892 52.2354 4.34796 52.3425 4.34836 52.4505C4.34876 52.5585 4.3705 52.6655 4.41235 52.7652Z" fill="black" fill-opacity="0.03"/>
    <path d="M20.9838 96.0733C20.8881 96.0231 20.7835 95.9924 20.676 95.9827C20.5684 95.973 20.4601 95.9846 20.3571 96.0169C20.2542 96.0492 20.1586 96.1014 20.076 96.1707C19.9933 96.24 19.9252 96.3249 19.8754 96.4206C19.718 96.7243 19.5021 96.9939 19.2402 97.2139C18.9782 97.4339 18.6754 97.6 18.3489 97.7026C18.0225 97.8053 17.6788 97.8426 17.3378 97.8123C16.9967 97.7819 16.6648 97.6846 16.3612 97.5259C16.2653 97.4747 16.1602 97.443 16.052 97.4325C15.9438 97.4221 15.8346 97.4332 15.7308 97.4652C15.627 97.4972 15.5306 97.5495 15.4472 97.6189C15.3637 97.6884 15.2949 97.7737 15.2446 97.87C15.1944 97.9663 15.1638 98.0716 15.1545 98.1798C15.1452 98.288 15.1575 98.3971 15.1906 98.5006C15.2236 98.6041 15.2769 98.7001 15.3473 98.783C15.4177 98.866 15.5037 98.9341 15.6006 98.9836C16.0959 99.2435 16.6375 99.4033 17.1943 99.4537C17.7511 99.5042 18.3122 99.4444 18.8456 99.2777C19.3789 99.111 19.8739 98.8408 20.3023 98.4824C20.7307 98.1241 21.084 97.6846 21.3421 97.1893C21.3926 97.0928 21.4234 96.9872 21.4327 96.8786C21.442 96.77 21.4297 96.6606 21.3963 96.5568C21.363 96.4529 21.3094 96.3567 21.2385 96.2737C21.1677 96.1907 21.0811 96.1226 20.9838 96.0733Z" fill="black" fill-opacity="0.03"/>
    <path d="M9.95063 71.7359C10.3791 72.089 10.9025 72.3073 11.4546 72.3632C12.0067 72.4191 12.5627 72.3101 13.0523 72.0499C13.542 71.7898 13.9431 71.3901 14.2052 70.9016C14.4672 70.4131 14.5783 69.8577 14.5244 69.3055C14.4705 68.7534 14.254 68.2294 13.9023 67.7998C13.5506 67.3702 13.0796 67.0543 12.5487 66.8921C12.0179 66.7299 11.4511 66.7287 10.92 66.8885C10.389 67.0484 9.91755 67.3622 9.56537 67.7903C9.09405 68.3641 8.86993 69.1017 8.94216 69.8414C9.01438 70.5811 9.37705 71.2624 9.95063 71.7359ZM12.4652 68.6796C12.6428 68.8251 12.7733 69.02 12.8401 69.2395C12.9069 69.4591 12.9071 69.6934 12.8407 69.9128C12.7742 70.1323 12.644 70.3269 12.4667 70.4722C12.2893 70.6174 12.0727 70.7067 11.8444 70.7287C11.616 70.7507 11.3862 70.7045 11.1839 70.5958C10.9817 70.4872 10.8161 70.321 10.7083 70.1184C10.6004 69.9158 10.5551 69.6858 10.578 69.4576C10.6009 69.2295 10.6911 69.0133 10.8371 68.8366C11.0322 68.6005 11.313 68.4514 11.6182 68.422C11.9233 68.3925 12.2279 68.4852 12.4652 68.6796Z" fill="black" fill-opacity="0.03"/>
  </g>
  <defs>
    <clipPath id="clip0_56_49">
      <rect width="130.682" height="63.1101" fill="white" transform="translate(-20.9028) rotate(39.446)"/>
    </clipPath>
  </defs>
</svg>