<svg xmlns="http://www.w3.org/2000/svg" width="135" height="166" viewBox="0 0 135 166" fill="none">
  <g clip-path="url(#clip0_56_63)">
    <path d="M85.0864 57.0167C85.2548 57.197 85.4586 57.3409 85.6851 57.4393C85.9116 57.5378 86.156 57.5888 86.4031 57.5892C86.5995 57.5877 86.7944 57.5557 86.9809 57.4944C87.3105 57.3886 87.6024 57.1902 87.8216 56.9231C88.0409 56.656 88.1782 56.3315 88.2171 55.9885C88.9486 50.0086 88.806 49.582 88.6926 49.2356C88.3235 48.2018 87.5637 47.3528 86.5753 46.87C85.5869 46.3871 84.4483 46.3087 83.4026 46.6514C82.357 46.9941 81.4872 47.7308 80.9791 48.7042C80.4709 49.6776 80.3646 50.8105 80.6828 51.8609C80.7962 52.2073 80.9389 52.6376 85.0864 57.0167ZM83.2101 49.8044C83.3069 49.6105 83.4415 49.4377 83.606 49.2962C83.7706 49.1547 83.9617 49.0473 84.1684 48.9804C84.5696 48.8493 85.0058 48.8755 85.3883 49.0536C85.7708 49.2318 86.0709 49.5485 86.2275 49.9393C86.2275 50.3331 86.147 51.6203 85.8618 54.1107C84.1501 52.2875 83.3016 51.2957 83.0858 50.9676C82.9814 50.5779 83.0257 50.1634 83.2101 49.8044Z" fill="black" fill-opacity="0.05"/>
    <path d="M35.6527 48.86C35.8 48.9025 35.9531 48.921 36.1062 48.9147C36.7134 48.9147 38.1507 48.7433 42.3787 47.9485C42.7168 47.8818 43.0291 47.7212 43.2796 47.4853C43.5302 47.2494 43.7087 46.9477 43.7948 46.615C43.8808 46.2823 43.8707 45.9321 43.7658 45.6048C43.6609 45.2776 43.4653 44.9865 43.2017 44.7653C38.5457 40.9257 38.1069 40.8127 37.7557 40.7216C36.6867 40.4822 35.5663 40.6671 34.6316 41.237C33.6969 41.8068 33.0214 42.717 32.7481 43.7747C32.4748 44.8325 32.6251 45.9547 33.1672 46.9039C33.7094 47.8531 34.6008 48.5546 35.6527 48.86ZM35.1114 44.3605C35.2037 44.0059 35.4114 43.6918 35.702 43.4674C35.9925 43.2431 36.3495 43.1212 36.717 43.1208C36.8227 43.1211 36.9281 43.1321 37.0316 43.1536C37.3717 43.3542 38.4104 44.1272 40.3562 45.706C37.8837 46.1508 36.6037 46.3259 36.205 46.3405C35.8044 46.2108 35.4685 45.9339 35.2653 45.5662C35.0622 45.1984 35.0072 44.7673 35.1114 44.3605Z" fill="black" fill-opacity="0.05"/>
    <path d="M34.8736 78.063C35.5486 78.0629 36.2136 77.9003 36.812 77.5889C37.1375 77.4212 37.5435 77.2243 41.2009 72.4222C41.4082 72.1471 41.5331 71.8192 41.5614 71.4763C41.5896 71.1334 41.5199 70.7896 41.3604 70.4845C41.2009 70.1795 40.9581 69.9256 40.66 69.7523C40.3619 69.579 40.0206 69.4933 39.6758 69.5052C33.6374 69.7568 33.2387 69.9646 32.9132 70.1323C32.0765 70.568 31.4106 71.271 31.0221 72.1286C30.6336 72.9863 30.545 73.9492 30.7705 74.863C30.996 75.7768 31.5225 76.5888 32.2657 77.169C33.009 77.7492 33.9259 78.064 34.8699 78.063H34.8736ZM33.2826 73.3629C33.4057 72.9779 33.6659 72.6511 34.0141 72.4441C34.4018 72.3675 35.6892 72.2508 38.2018 72.1268C36.662 74.1068 35.8245 75.0949 35.5392 75.3684C35.2476 75.4985 34.9246 75.5418 34.6089 75.493C34.2932 75.4443 33.9984 75.3056 33.7599 75.0937C33.5214 74.8818 33.3495 74.6057 33.2648 74.2986C33.1801 73.9915 33.1863 73.6666 33.2826 73.3629Z" fill="black" fill-opacity="0.05"/>
    <path d="M125.944 80.557C126.301 81.2396 126.84 81.8112 127.501 82.2098C128.162 82.6084 128.92 82.8186 129.692 82.8177C130.368 82.8181 131.033 82.6541 131.631 82.3401C131.953 82.1723 132.362 81.9754 136.02 77.1769C136.227 76.9019 136.352 76.574 136.38 76.2311C136.408 75.8882 136.339 75.5444 136.179 75.2393C136.02 74.9342 135.777 74.6804 135.479 74.5071C135.181 74.3338 134.84 74.2481 134.495 74.2599C128.46 74.5079 128.058 74.7194 127.732 74.8871C126.742 75.4035 125.997 76.2905 125.662 77.3534C125.327 78.4163 125.428 79.5685 125.944 80.557ZM128.833 77.1988C129.221 77.1223 130.508 77.0056 133.021 76.8816C131.481 78.8615 130.643 79.846 130.358 80.1231C129.976 80.2791 129.549 80.287 129.161 80.1455C128.773 80.0039 128.452 79.723 128.262 79.3579C128.071 78.9927 128.023 78.5697 128.129 78.1716C128.235 77.7736 128.486 77.4292 128.833 77.2061V77.1988Z" fill="black" fill-opacity="0.05"/>
    <path d="M63.8587 63.9629C63.6234 64.2163 63.4665 64.5321 63.4068 64.8724C63.3471 65.2126 63.3872 65.5627 63.5222 65.8808C65.8337 71.445 66.1702 71.7513 66.4482 71.9956C67.2225 72.7009 68.2339 73.0913 69.2827 73.0895H69.4912C70.3211 73.048 71.1202 72.763 71.7883 72.2702C72.4563 71.7775 72.9633 71.099 73.2458 70.3199C73.5284 69.5408 73.5737 68.6958 73.3761 67.8912C73.1786 67.0865 72.747 66.3579 72.1355 65.7969C71.8685 65.5526 71.532 65.25 65.7606 63.467C65.4295 63.3573 65.0735 63.3458 64.7359 63.4338C64.3983 63.5218 64.0936 63.7056 63.8587 63.9629ZM70.4641 67.7404C70.686 67.9673 70.8377 68.2531 70.9008 68.5637C70.964 68.8743 70.936 69.1964 70.8202 69.4916C70.7044 69.7867 70.5058 70.0423 70.248 70.2277C69.9902 70.4132 69.6843 70.5206 69.3668 70.5371C68.9612 70.559 68.562 70.429 68.2477 70.1725C68.0428 69.837 67.4906 68.6702 66.5104 66.3621C68.895 67.1242 70.1093 67.5654 70.4641 67.7404Z" fill="black" fill-opacity="0.05"/>
    <path d="M61.6497 42.9713H61.668C62.0127 42.9727 62.3507 42.8756 62.6417 42.6914C62.9328 42.5072 63.1648 42.2437 63.3102 41.9321C65.9326 36.5065 65.9362 36.0543 65.9399 35.6933C65.9506 34.5786 65.5172 33.5052 64.7348 32.7087C63.9524 31.9123 62.8849 31.4579 61.7668 31.4454H61.7265C60.6157 31.4454 59.5497 31.8823 58.7601 32.6613C57.9705 33.4403 57.5211 34.4984 57.5095 35.6058C57.5095 35.9705 57.5095 36.4226 60.0112 41.8993C60.1516 42.2165 60.3809 42.4864 60.6716 42.6766C60.9623 42.8668 61.302 42.9691 61.6497 42.9713ZM61.7265 34.0088C62.1483 34.0137 62.5524 34.1786 62.8567 34.4698C63.161 34.761 63.3428 35.1567 63.3651 35.5767C63.248 35.9413 62.747 37.1446 61.6717 39.4089C60.6439 37.1227 60.1685 35.9231 60.0587 35.5438C60.0894 35.1247 60.2787 34.7329 60.5885 34.4478C60.8982 34.1628 61.305 34.0058 61.7265 34.0088Z" fill="black" fill-opacity="0.05"/>
    <path d="M122.381 54.9712H122.399C122.743 54.9734 123.079 54.8783 123.37 54.6968C123.661 54.5154 123.894 54.2551 124.042 53.9466C126.664 48.5173 126.668 48.0651 126.671 47.7041C126.682 46.5894 126.249 45.516 125.466 44.7195C124.684 43.9231 123.616 43.4687 122.498 43.4562H122.454C121.344 43.4581 120.28 43.8957 119.491 44.6744C118.703 45.4531 118.253 46.5101 118.241 47.6166C118.241 47.9813 118.241 48.4334 120.743 53.9101C120.885 54.2252 121.115 54.4929 121.405 54.6811C121.696 54.8692 122.035 54.9699 122.381 54.9712ZM122.473 46.0086C122.894 46.0136 123.298 46.1784 123.603 46.4696C123.907 46.7608 124.089 47.1566 124.111 47.5765C123.994 47.9411 123.493 49.1444 122.418 51.4088C121.39 49.1225 120.911 47.9229 120.805 47.5437C120.835 47.1246 121.025 46.7328 121.335 46.4477C121.644 46.1626 122.051 46.0057 122.473 46.0086Z" fill="black" fill-opacity="0.05"/>
    <path d="M101.761 71.8315C102.062 72.0003 102.405 72.0807 102.75 72.0633C103.095 72.0458 103.428 71.9314 103.71 71.7331C108.644 68.2545 108.867 67.8607 109.046 67.5472C109.599 66.5777 109.742 65.4291 109.445 64.3542C109.148 63.2793 108.435 62.366 107.463 61.8152C106.981 61.5422 106.45 61.3666 105.9 61.2983C105.35 61.2301 104.793 61.2707 104.259 61.4176C103.725 61.5646 103.225 61.8152 102.788 62.1549C102.351 62.4947 101.986 62.917 101.713 63.3977C101.534 63.7113 101.311 64.1051 100.843 70.1105C100.813 70.455 100.884 70.8006 101.047 71.1058C101.21 71.4111 101.458 71.663 101.761 71.8315ZM103.992 64.5718C104.224 64.2239 104.58 63.9767 104.987 63.8799C105.395 63.7831 105.824 63.844 106.189 64.0501C106.553 64.2563 106.826 64.5926 106.952 64.9911C107.077 65.3897 107.047 65.821 106.866 66.198C106.581 66.4715 105.564 67.27 103.523 68.7322C103.739 66.2236 103.9 64.9437 103.992 64.5609V64.5718Z" fill="black" fill-opacity="0.05"/>
    <path d="M90.0275 32.9222C90.2981 33.1629 90.6383 33.4618 96.439 35.1464C96.7714 35.2431 97.1246 35.2437 97.4574 35.1481C97.7902 35.0525 98.0889 34.8647 98.3188 34.6065C98.5486 34.3482 98.7003 34.0302 98.756 33.6895C98.8117 33.3487 98.7692 32.9992 98.6334 32.6815C96.2305 27.1574 95.8903 26.8475 95.616 26.6178C94.7783 25.8798 93.6809 25.5036 92.565 25.572C91.4492 25.6404 90.4062 26.1477 89.6654 26.9824C89.298 27.3961 89.0159 27.878 88.8352 28.4004C88.6546 28.9228 88.5789 29.4755 88.6125 30.0271C88.6461 30.5786 88.7884 31.1182 89.0312 31.6149C89.274 32.1117 89.6125 32.5559 90.0275 32.9222ZM91.5709 28.6779C91.8503 28.3632 92.2394 28.1662 92.6592 28.127C93.0789 28.0877 93.4979 28.2091 93.8312 28.4665C94.0433 28.8019 94.6176 29.9578 95.6343 32.2513C93.2277 31.522 92.0062 31.1064 91.6477 30.9423C91.3486 30.6453 91.1742 30.2459 91.1599 29.8253C91.1456 29.4046 91.2926 28.9944 91.5709 28.6779Z" fill="black" fill-opacity="0.05"/>
    <path d="M149.282 137.949H146.663C149.395 135.113 151.783 131.656 151.783 126.092C151.784 125.048 151.7 124.005 151.531 122.974C157.467 122.325 160.974 116.251 160.974 110.362C160.974 103.733 156.655 99.1058 150.474 99.1058H148.225V92.4441C150.335 91.6361 152.211 90.3165 153.681 88.6046C154.942 87.1314 155.867 85.4022 156.39 83.5371C156.912 81.672 157.022 79.7158 156.71 77.8043C152.881 54.377 138.097 33.7683 117.093 22.4722L119.437 16.0438L143.371 24.9735C143.609 25.0633 143.868 25.0805 144.115 25.0228C144.362 24.965 144.587 24.8351 144.759 24.6495C144.932 24.4639 145.046 24.2311 145.085 23.981C145.124 23.7308 145.088 23.4746 144.98 23.2452L141.283 15.2526L149.234 11.6063C149.464 11.5 149.656 11.3282 149.788 11.1128C149.92 10.8973 149.984 10.6478 149.974 10.3957C149.963 10.1436 149.878 9.90034 149.729 9.69657C149.579 9.4928 149.373 9.33768 149.135 9.25082L123.906 0.0768118C123.587 -0.0385674 123.234 -0.0228316 122.926 0.120567C122.773 0.191957 122.636 0.293297 122.523 0.418571C122.41 0.543845 122.323 0.690498 122.268 0.849821L117.477 13.9764L114.803 21.2944C103.98 15.948 92.0504 13.2067 79.972 13.2906C67.8937 13.3745 56.0034 16.2814 45.2563 21.7777C34.5093 27.274 25.205 35.2066 18.091 44.9381C10.9769 54.6697 6.2513 65.929 4.29382 77.8116C3.98124 79.7214 4.08956 81.6761 4.61127 83.54C5.13297 85.4038 6.05554 87.1321 7.31486 88.6046C8.77534 90.3183 10.6406 91.6427 12.7425 92.4587V99.1058H11.744C6.85768 99.1058 3.43067 100.681 1.55441 103.791C0 106.369 0 109.366 0 111.157C0 117.742 3.49284 121.975 9.46908 122.861C9.2876 123.929 9.19585 125.009 9.19477 126.092C9.15795 130.471 10.7742 134.703 13.7227 137.949H11.7038C9.47129 137.959 7.33338 138.849 5.75716 140.425C4.18095 142.002 3.29456 144.136 3.29169 146.361V149.071C3.29749 153.559 5.08897 157.863 8.27314 161.037C11.4573 164.21 15.7742 165.995 20.2768 166H140.738C145.24 165.995 149.557 164.21 152.74 161.036C155.924 157.862 157.714 153.559 157.719 149.071V146.361C157.716 144.131 156.826 141.993 155.245 140.417C153.663 138.84 151.519 137.952 149.282 137.949ZM124.236 2.91725L145.343 10.5744L139.048 13.4914C138.895 13.5617 138.758 13.6613 138.644 13.7846C138.529 13.9079 138.441 14.0524 138.383 14.2099C138.325 14.3674 138.298 14.5347 138.305 14.7024C138.312 14.87 138.352 15.0347 138.423 15.1869L141.349 21.5169L120.329 13.6482L124.236 2.91725ZM154.782 110.362C154.782 114.234 152.566 116.838 150.5 116.838C150.132 116.84 149.765 116.815 149.402 116.761C147.257 112.88 143.835 109.855 139.714 108.196C139.344 108.047 138.949 107.97 138.551 107.97C131.561 107.97 128.877 110.785 126.723 113.045C124.7 115.164 123.102 116.838 116.848 116.838C111.409 116.838 107.781 115.456 104.35 113.764L112.396 105.304H150.5C154.226 105.304 154.782 108.473 154.782 110.362ZM87.3174 108.903L83.7551 105.304H103.82L97.0169 112.458L96.995 112.484L93.9959 115.649L87.3174 108.903ZM18.9674 93.3666H142.033V99.1058H18.9674V93.3666ZM12.0695 84.5937C11.3928 83.8048 10.8964 82.8787 10.6147 81.8794C10.3331 80.8802 10.2729 79.8318 10.4383 78.807C12.2502 67.8272 16.6323 57.4277 23.2292 48.4519C29.8261 39.4761 38.4521 32.1766 48.4075 27.1455C58.363 22.1144 69.3677 19.4933 80.5292 19.4948C91.6907 19.4963 102.695 22.1203 112.649 27.154L107.444 41.4109C107.387 41.5682 107.361 41.7353 107.368 41.9026C107.375 42.0699 107.415 42.2341 107.486 42.3859C107.557 42.5376 107.658 42.6739 107.782 42.7869C107.906 42.8999 108.051 42.9874 108.209 43.0444C108.349 43.0963 108.498 43.1223 108.648 43.121C108.91 43.1212 109.167 43.0408 109.382 42.8908C109.597 42.7407 109.761 42.5283 109.851 42.2824L114.931 28.3609C124.286 33.5609 132.347 40.7941 138.515 49.5239C144.683 58.2537 148.8 68.256 150.562 78.7888C150.732 79.8154 150.676 80.8666 150.397 81.8692C150.117 82.8718 149.622 83.8016 148.945 84.5937C148.253 85.4064 147.391 86.0592 146.421 86.5069C145.45 86.9546 144.393 87.1863 143.324 87.1861H17.6764C16.6092 87.185 15.555 86.9525 14.5868 86.5049C13.6187 86.0572 12.7598 85.4051 12.0695 84.5937ZM6.21763 111.175C6.21763 107.777 6.21763 105.323 11.744 105.323H75.0175L78.5762 108.922C75.204 109.87 72.7243 111.394 70.4567 112.805C66.9492 114.993 63.9209 116.856 57.6082 116.856C51.0248 116.856 48.4097 114.796 45.6484 112.615C42.9528 110.486 39.8989 108.076 34.0616 108.076C27.5514 108.076 23.0893 111.077 19.5014 113.49C17.1826 115.051 15.1747 116.407 13.0534 116.772C12.6802 116.837 12.3021 116.87 11.9232 116.87C7.92199 116.838 6.21763 115.138 6.21763 111.157V111.175ZM15.4124 126.125C15.4113 124.877 15.5899 123.635 15.9427 122.438C18.5614 121.614 20.8035 120.108 22.9833 118.643C26.3115 116.404 29.4569 114.289 34.0653 114.289C37.7227 114.289 39.438 115.631 41.7898 117.487C44.9388 119.973 48.8596 123.069 57.6118 123.069C65.6984 123.069 69.9739 120.418 73.7411 118.081C76.7146 116.24 79.3223 114.632 83.8685 114.278L91.8161 122.3C92.1021 122.591 92.4433 122.823 92.8201 122.982C93.1968 123.141 93.6014 123.224 94.0105 123.226H94.0398C94.4573 123.221 94.8697 123.133 95.2524 122.967C95.635 122.8 95.9801 122.558 96.2672 122.256L99.8624 118.471C104.142 120.688 109.068 123.054 116.822 123.054C125.753 123.054 128.778 119.882 131.21 117.337C132.929 115.536 134.092 114.318 137.922 114.198C140.778 115.51 143.07 117.798 144.381 120.648C145.173 122.363 145.58 124.229 145.573 126.117C145.573 129.61 144.161 131.703 141.725 134.139C140.506 135.36 139.057 136.328 137.46 136.987C135.864 137.646 134.152 137.983 132.425 137.979H28.5535C20.9388 137.949 15.4124 132.961 15.4124 126.092V126.125ZM151.502 149.096C151.499 151.941 150.364 154.669 148.346 156.681C146.328 158.693 143.592 159.824 140.738 159.827H20.2658C17.4091 159.821 14.6715 158.685 12.6546 156.668C10.6377 154.651 9.5064 151.919 9.50931 149.071V146.361C9.50927 145.779 9.73966 145.22 10.1505 144.805C10.5613 144.391 11.1194 144.155 11.7038 144.148H149.282C149.87 144.148 150.435 144.381 150.851 144.796C151.268 145.211 151.502 145.774 151.502 146.361V149.096Z" fill="black" fill-opacity="0.05"/>
    <path d="M27.4051 53.2355C27.2806 53.1193 27.1341 53.0291 26.9742 52.9701C26.8142 52.9111 26.6441 52.8846 26.4738 52.892C26.3034 52.8995 26.1363 52.9408 25.9822 53.0136C25.8281 53.0864 25.6901 53.1891 25.5763 53.3157C21.6592 57.611 16.1109 70.2125 14.6004 78.3036C14.5384 78.6363 14.6115 78.9798 14.8035 79.2588C14.9955 79.5378 15.2908 79.7293 15.6245 79.7913C15.7026 79.8076 15.7824 79.8149 15.8622 79.8132C16.1622 79.8125 16.4523 79.7065 16.6817 79.5138C16.9111 79.3211 17.0651 79.054 17.1167 78.7594C18.5065 71.3174 23.9305 58.8872 27.4855 55.0076C27.7052 54.7595 27.8196 54.436 27.8046 54.1053C27.7896 53.7747 27.6463 53.4628 27.4051 53.2355Z" fill="black" fill-opacity="0.05"/>
    <path d="M52.2171 154.777H20.6755C17.2558 154.777 14.7797 151.896 14.7797 149.953C14.7797 149.614 14.6448 149.29 14.4047 149.05C14.1647 148.811 13.8391 148.677 13.4996 148.677C13.1601 148.677 12.8345 148.811 12.5944 149.05C12.3544 149.29 12.2195 149.614 12.2195 149.953C12.2195 153.362 15.9135 157.329 20.6755 157.329H52.2171C52.5566 157.329 52.8822 157.195 53.1223 156.955C53.3624 156.716 53.4972 156.392 53.4972 156.053C53.4972 155.715 53.3624 155.39 53.1223 155.151C52.8822 154.911 52.5566 154.777 52.2171 154.777Z" fill="black" fill-opacity="0.05"/>
  </g>
  <defs>
    <clipPath id="clip0_56_63">
      <rect width="161" height="166" fill="white"/>
    </clipPath>
  </defs>
</svg>