<svg xmlns="http://www.w3.org/2000/svg" width="50" height="50" viewBox="0 0 50 50" fill="none">
  <g clip-path="url(#clip0_54_184)">
    <path d="M31.1391 2.62868C30.6166 2.62868 30.0971 2.64336 29.5819 2.66831C29.4374 2.22098 29.1853 1.81598 28.8477 1.48884C28.5101 1.1617 28.0973 0.922425 27.6457 0.792016C27.194 0.661607 26.7173 0.644052 26.2573 0.740889C25.7972 0.837727 25.368 1.046 25.0073 1.34742C24.7715 0.970272 24.4512 0.653146 24.0717 0.421113C23.6922 0.18908 23.2639 0.0485019 22.8207 0.010491C22.3776 -0.0275199 21.9316 0.0380784 21.5182 0.202101C21.1047 0.366124 20.7351 0.624074 20.4385 0.955559C20.0937 0.570779 19.6515 0.286132 19.1585 0.131614C18.6654 -0.0229039 18.1399 -0.0415711 17.6371 0.0775783C17.1344 0.196728 16.6731 0.449282 16.3018 0.808628C15.9306 1.16797 15.6632 1.62081 15.5277 2.1194C15.0924 1.85244 14.5937 1.70639 14.0831 1.6963C13.5725 1.68621 13.0684 1.81244 12.6228 2.06199C12.1773 2.31155 11.8063 2.6754 11.5481 3.11604C11.29 3.55669 11.154 4.05821 11.1541 4.56891V9.90528C7.66205 12.8223 4.8531 16.4706 2.92573 20.5924C0.998367 24.7141 -0.000396583 29.2089 1.18128e-07 33.759C1.18128e-07 33.9536 0.0773136 34.1403 0.214932 34.2779C0.352551 34.4155 0.539203 34.4928 0.733825 34.4928C0.928447 34.4928 1.1151 34.4155 1.25272 34.2779C1.39034 34.1403 1.46765 33.9536 1.46765 33.759C1.46611 29.6369 2.32593 25.5601 3.99198 21.7897C5.65803 18.0193 8.09355 14.6387 11.1424 11.8646V12.9668C10.9274 15.0632 10.8734 17.173 10.981 19.2777C7.93118 23.4948 6.29205 28.5679 6.29768 33.7722C6.29768 33.9668 6.375 34.1535 6.51262 34.2911C6.65024 34.4287 6.83689 34.506 7.03151 34.506C7.22613 34.506 7.41278 34.4287 7.5504 34.2911C7.68802 34.1535 7.76533 33.9668 7.76533 33.7722C7.76364 29.4844 8.95037 25.28 11.1938 21.6259C11.6986 25.8689 12.8082 28.4432 13.1252 29.1109V49.2632C13.1252 49.4579 13.2025 49.6445 13.3401 49.7821C13.4777 49.9197 13.6644 49.9971 13.859 49.9971C14.0536 49.9971 14.2403 49.9197 14.3779 49.7821C14.5155 49.6445 14.5928 49.4579 14.5928 49.2632V29.6804H27.8237L29.7316 49.3337C29.7485 49.5164 29.8332 49.6861 29.9691 49.8095C30.1049 49.9328 30.282 50.0008 30.4655 50H30.5374C30.6338 49.991 30.7275 49.963 30.813 49.9176C30.8985 49.8723 30.9743 49.8104 31.0358 49.7357C31.0973 49.6609 31.1434 49.5747 31.1715 49.482C31.1996 49.3894 31.209 49.2921 31.1993 49.1957L29.2679 29.2357C32.0725 26.5235 33.1249 22.8074 33.3406 21.9385L37.5733 16.8297C37.6007 16.799 37.6248 16.7655 37.6452 16.7299L37.657 16.7108L37.676 16.6726L37.6878 16.6477C37.6878 16.6359 37.6981 16.6227 37.7025 16.6095L37.7113 16.5846C37.7113 16.5699 37.7201 16.5567 37.723 16.5435V16.5185C37.723 16.5038 37.723 16.4892 37.7303 16.4745V16.4525V16.404C37.7303 16.404 37.7303 16.3923 37.7303 16.3864V16.3263L37.5484 11.3098C47.3126 14.1086 54.4792 23.1141 54.4792 33.7649C54.4792 33.9595 54.5565 34.1461 54.6941 34.2838C54.8317 34.4214 55.0184 34.4987 55.213 34.4987C55.4076 34.4987 55.5943 34.4214 55.7319 34.2838C55.8695 34.1461 55.9468 33.9595 55.9468 33.7649C55.9468 22.0618 47.8072 12.2242 36.8923 9.61469L34.1772 5.73716C34.0752 5.59044 33.9233 5.48594 33.7498 5.44325C33.5764 5.40056 33.3933 5.42261 33.2349 5.50527C32.3455 5.96465 31.396 6.92889 31.4855 8.93957C31.3622 8.93957 31.2404 8.93957 31.1171 8.93957C30.6416 8.93957 30.169 8.95376 29.6994 8.98213V4.13889C30.169 4.11541 30.6416 4.1022 31.1171 4.1022C47.4711 4.1022 60.7768 17.4079 60.7768 33.7619C60.7768 33.9565 60.8542 34.1432 60.9918 34.2808C61.1294 34.4184 61.316 34.4958 61.5107 34.4958C61.7053 34.4958 61.8919 34.4184 62.0296 34.2808C62.1672 34.1432 62.2445 33.9565 62.2445 33.7619C62.2724 16.5948 48.3106 2.62868 31.1391 2.62868ZM28.2479 12.2594H25.4476V6.23176H28.2479V12.2594ZM21.1752 12.2594V6.23176H23.9741V12.2594H21.1752ZM16.9015 12.2594V6.23176H19.7003V12.2594H16.9015ZM12.6291 12.2594V6.23176H15.4265V12.2594H12.6291ZM26.8477 2.15463C27.2188 2.1554 27.5745 2.30317 27.8369 2.56557C28.0993 2.82798 28.2471 3.18366 28.2479 3.55477V4.75677H25.4476V3.55477C25.448 3.18355 25.5956 2.82764 25.8581 2.56515C26.1206 2.30266 26.4765 2.15502 26.8477 2.15463ZM22.5754 1.47657C22.9462 1.47774 23.3015 1.62567 23.5636 1.88804C23.8257 2.1504 23.9733 2.50586 23.9741 2.87671V4.75677H21.1752V2.87671C21.176 2.50561 21.3238 2.14993 21.5862 1.88752C21.8486 1.62511 22.2043 1.47735 22.5754 1.47657ZM16.9029 2.87671C16.8968 2.68913 16.9285 2.50223 16.9961 2.32714C17.0637 2.15205 17.1658 1.99234 17.2964 1.8575C17.4269 1.72265 17.5833 1.61543 17.7561 1.54221C17.9289 1.46898 18.1146 1.43125 18.3023 1.43125C18.49 1.43125 18.6758 1.46898 18.8486 1.54221C19.0214 1.61543 19.1777 1.72265 19.3083 1.8575C19.4388 1.99234 19.5409 2.15205 19.6085 2.32714C19.6761 2.50223 19.7078 2.68913 19.7017 2.87671V4.75677H16.9029V2.87671ZM14.0293 3.17024C14.2129 3.17024 14.3948 3.20642 14.5645 3.27671C14.7342 3.347 14.8884 3.45002 15.0183 3.5799C15.1481 3.70978 15.2512 3.86397 15.3215 4.03366C15.3918 4.20336 15.4279 4.38523 15.4279 4.56891V4.75383H12.6291V4.57185C12.6291 4.2009 12.7765 3.84514 13.0388 3.58284C13.3011 3.32054 13.6568 3.17318 14.0278 3.17318L14.0293 3.17024ZM28.2038 28.2069H14.336C13.7357 26.7965 11.885 21.6949 12.5631 13.7329H28.6573L30.0824 16.0812L31.895 21.6259C31.6807 22.4508 30.6842 25.8307 28.2038 28.2069ZM33.3406 13.6537L36.0103 16.3908L32.9282 20.104L31.575 16.0078L33.3406 13.6537ZM33.4228 7.20774L36.0646 10.9884L36.1908 14.4682L33.888 12.0862C33.6239 11.5358 32.3 8.55358 33.4331 7.20774H33.4228ZM31.1391 10.4058C31.3358 10.4058 31.531 10.4058 31.7262 10.4146C31.8975 11.1076 32.1303 11.7839 32.4218 12.4355L30.8456 14.5357L29.7155 12.6454V10.4512C30.191 10.4219 30.6636 10.4058 31.1391 10.4058Z" fill="#D1003F"/>
    <path d="M14.7187 24.4746H16.8496C16.9798 24.4746 17.1046 24.4229 17.1966 24.3309C17.2886 24.2389 17.3403 24.114 17.3403 23.9839C17.3403 23.8537 17.2886 23.7289 17.1966 23.6369C17.1046 23.5449 16.9798 23.4932 16.8496 23.4932H14.7187C14.5886 23.4932 14.4638 23.5449 14.3718 23.6369C14.2797 23.7289 14.228 23.8537 14.228 23.9839C14.228 24.114 14.2797 24.2389 14.3718 24.3309C14.4638 24.4229 14.5886 24.4746 14.7187 24.4746Z" fill="#D1003F"/>
    <path d="M17.8789 25.3125H14.7188C14.5892 25.3125 14.4651 25.3639 14.3735 25.4555C14.2819 25.5471 14.2305 25.6713 14.2305 25.8008C14.2305 25.9303 14.2819 26.0545 14.3735 26.146C14.4651 26.2376 14.5892 26.2891 14.7188 26.2891H17.8789C18.0084 26.2891 18.1326 26.2376 18.2242 26.146C18.3157 26.0545 18.3672 25.9303 18.3672 25.8008C18.3672 25.6713 18.3157 25.5471 18.2242 25.4555C18.1326 25.3639 18.0084 25.3125 17.8789 25.3125Z" fill="#D1003F"/>
  </g>
  <defs>
    <clipPath id="clip0_54_184">
      <rect width="50" height="50" fill="white"/>
    </clipPath>
  </defs>
</svg>