<svg xmlns="http://www.w3.org/2000/svg" width="139" height="171" viewBox="0 0 139 171" fill="none">
  <g clip-path="url(#clip0_56_79)">
    <path d="M214 151.253C214.012 146.744 213.13 142.277 211.405 138.111C209.68 133.945 207.146 130.162 203.95 126.982L87.0189 10.0136C81.0332 4.04802 73.0597 0.497315 64.6219 0.0399102C56.1841 -0.417495 47.8736 2.25047 41.2782 7.53403C36.6257 4.16707 30.9258 2.5683 25.2012 3.02453C19.4766 3.48076 14.1018 5.96213 10.0411 10.0235C5.98032 14.0849 3.49933 19.4605 3.04318 25.186C2.58702 30.9115 4.18554 36.6122 7.55198 41.2655C2.26365 47.8608 -0.405713 56.1756 0.0552707 64.6172C0.516255 73.0587 4.07518 81.0334 10.0502 87.0133L126.981 203.963C132.962 209.934 140.934 213.491 149.373 213.954C157.811 214.417 166.124 211.753 172.722 206.471C177.376 209.828 183.074 211.419 188.794 210.958C194.514 210.497 199.884 208.014 203.94 203.955C207.997 199.895 210.477 194.523 210.934 188.802C211.392 183.08 209.798 177.383 206.439 172.73C211.349 166.651 214.019 159.068 214 151.253ZM81.2882 15.7643L198.219 132.713C202.639 137.134 205.334 142.989 205.819 149.222C206.305 155.454 204.548 161.656 200.865 166.707L47.2997 13.1226C52.3529 9.44656 58.5511 7.69315 64.7808 8.17734C71.0106 8.66153 76.8635 11.3516 81.2882 15.7643ZM132.712 198.231L15.7809 81.2818C11.3612 76.8609 8.66588 71.0065 8.18073 64.7736C7.69557 58.5408 9.45252 52.3397 13.1349 47.288L166.7 200.873C161.647 204.549 155.449 206.302 149.219 205.818C142.99 205.334 137.137 202.644 132.712 198.231ZM198.219 198.231C195.205 201.235 191.123 202.922 186.867 202.922C182.612 202.922 178.53 201.235 175.516 198.231L15.8 38.4903C14.308 37.0006 13.124 35.2316 12.3156 33.2842C11.5072 31.3369 11.0902 29.2493 11.0884 27.1408C11.0848 22.8824 12.7728 18.797 15.7809 15.7833C18.7891 12.7697 22.871 11.0746 27.1287 11.071C31.3864 11.0674 35.4712 12.7556 38.4844 15.7643L198.2 175.505C201.212 178.518 202.906 182.603 202.91 186.864C202.913 191.125 201.226 195.213 198.219 198.231Z" fill="black" fill-opacity="0.03"/>
    <path d="M55.7002 15.2589C55.7537 15.4715 55.8485 15.6715 55.9793 15.8474C56.1101 16.0234 56.2742 16.1719 56.4624 16.2843C56.6506 16.3968 56.8591 16.4711 57.076 16.503C57.2928 16.5348 57.5139 16.5236 57.7264 16.47C60.0682 15.8786 62.5055 15.7684 64.891 16.1462C67.2765 16.5241 69.5606 17.3821 71.605 18.6682C71.9819 18.8993 72.4351 18.9713 72.8651 18.8685C73.295 18.7657 73.6666 18.4965 73.8983 18.1199C74.1321 17.7443 74.2072 17.2911 74.107 16.8601C74.0069 16.4292 73.7397 16.0556 73.3643 15.8215C70.9408 14.2965 68.2329 13.2794 65.4047 12.8318C62.5766 12.3843 59.6871 12.5157 56.9112 13.218C56.4801 13.3281 56.1103 13.605 55.8832 13.9877C55.6561 14.3704 55.5903 14.8276 55.7002 15.2589Z" fill="black" fill-opacity="0.03"/>
    <path d="M178.662 179.63C178.763 179.033 178.882 178.428 178.996 177.818C179.134 177.117 179.273 176.387 179.387 175.681C179.459 175.238 179.511 174.833 179.549 174.484C179.84 172.129 179.835 169.42 177.561 167.146C175.006 164.59 171.816 164.862 169.032 165.324C168.364 165.434 167.687 165.563 167.01 165.692C166.333 165.82 165.709 165.94 165.07 166.044C162.033 166.521 160.612 166.321 159.444 165.158C158.276 163.994 158.057 162.568 158.557 159.526C158.662 158.892 158.786 158.243 158.91 157.595C159.034 156.946 159.168 156.236 159.282 155.568C159.759 152.779 160.011 149.594 157.456 147.038C154.901 144.482 151.735 144.758 148.927 145.216C148.264 145.326 147.587 145.455 146.915 145.583C146.242 145.712 145.608 145.836 144.97 145.941C141.928 146.418 140.507 146.218 139.344 145.049C138.18 143.881 137.952 142.465 138.457 139.418C138.562 138.784 138.686 138.135 138.805 137.487C138.924 136.838 139.067 136.128 139.177 135.46C139.654 132.675 139.911 129.49 137.356 126.934C134.8 124.378 131.611 124.65 128.822 125.108C128.159 125.218 127.477 125.346 126.8 125.48C126.123 125.613 125.503 125.728 124.864 125.833C121.823 126.31 120.402 126.104 119.239 124.941C118.075 123.778 117.846 122.352 118.347 119.31C118.452 118.671 118.576 118.022 118.705 117.374C118.833 116.725 118.962 116.015 119.072 115.352C119.549 112.567 119.806 109.377 117.251 106.821C114.695 104.265 111.501 104.537 108.716 105C108.049 105.109 107.372 105.238 106.695 105.367C106.018 105.496 105.393 105.615 104.759 105.72C101.718 106.197 100.297 105.996 99.1335 104.833C97.9702 103.669 97.7366 102.244 98.242 99.1822C98.3468 98.5433 98.4708 97.8948 98.5948 97.2463C98.7187 96.5978 98.8522 95.8873 98.9619 95.2245C99.4386 92.435 99.6961 89.2497 97.1406 86.6938C94.5852 84.138 91.3956 84.4098 88.6066 84.8723C87.9486 84.9772 87.2764 85.106 86.5994 85.2347C85.9224 85.3635 85.2931 85.4874 84.6494 85.5924C81.6077 86.093 80.1869 85.8689 79.0236 84.7007C77.8603 83.5324 77.6315 82.1162 78.1321 79.074C78.237 78.435 78.3657 77.7865 78.4897 77.1333C78.6136 76.48 78.7471 75.779 78.8568 75.1115C79.3335 72.3267 79.591 69.1415 77.0355 66.5856C74.4801 64.0298 71.2905 64.3015 68.5015 64.7593C67.834 64.869 67.157 64.9977 66.48 65.1265C65.803 65.2552 65.1784 65.3744 64.5443 65.4793C61.5026 65.9562 60.0818 65.7559 58.9137 64.5924C57.7457 63.4289 57.5216 62.0032 58.027 58.961C58.1319 58.322 58.2558 57.6735 58.375 57.0536C58.4942 56.4337 58.6372 55.6899 58.7469 55.0223C59.2236 52.2376 59.4811 49.0523 56.9209 46.4917C54.3607 43.931 51.1997 44.2076 48.3868 44.6701C47.7241 44.775 47.0519 44.9038 46.3749 45.0325C45.6979 45.1613 45.0685 45.2853 44.4297 45.3902C41.3879 45.867 39.9672 45.662 38.8039 44.4985C37.6406 43.335 37.4117 41.9093 37.9123 38.867C38.0172 38.2281 38.1412 37.5843 38.2604 36.9597C38.3796 36.335 38.5226 35.5959 38.6322 34.9236C39.109 32.1388 39.3664 28.9488 36.8062 26.393C36.6497 26.2364 36.4639 26.1122 36.2594 26.0275C36.0549 25.9428 35.8357 25.8992 35.6143 25.8992C35.393 25.8992 35.1738 25.9428 34.9693 26.0275C34.7648 26.1122 34.5789 26.2364 34.4224 26.393C34.2659 26.5495 34.1417 26.7353 34.057 26.9399C33.9723 27.1444 33.9287 27.3637 33.9287 27.585C33.9287 27.8064 33.9723 28.0257 34.057 28.2302C34.1417 28.4347 34.2659 28.6206 34.4224 28.7771C35.5905 29.9454 35.8146 31.3664 35.314 34.4086C35.2091 35.0476 35.0851 35.7008 34.9612 36.3541C34.8372 37.0074 34.7037 37.7035 34.594 38.3663C34.1173 41.1511 33.8598 44.3411 36.4201 46.9017C38.9803 49.4624 42.1412 49.181 44.9493 48.728C45.6168 48.6184 46.2986 48.4848 46.9756 48.3561C47.6526 48.2274 48.2724 48.1081 48.8826 48.0032C51.9244 47.5264 53.3451 47.7267 54.5132 48.8949C55.6813 50.0632 55.9054 51.4842 55.4048 54.5264C55.2999 55.1653 55.1759 55.8186 55.052 56.4671C54.928 57.1156 54.7945 57.8213 54.6849 58.4841C54.2081 61.2689 53.9506 64.4589 56.5061 67.0195C59.0615 69.5801 62.2273 69.2988 65.0354 68.841C65.7029 68.7314 66.3799 68.6026 67.0569 68.4739C67.7339 68.3451 68.3584 68.2259 68.9973 68.121C72.039 67.6442 73.4598 67.8445 74.6279 69.0127C75.7959 70.181 76.0152 71.5972 75.5146 74.6346C75.4098 75.2736 75.2858 75.9221 75.1618 76.5754C75.0379 77.2286 74.9044 77.9296 74.7947 78.5971C74.318 81.3819 74.0605 84.5719 76.616 87.1278C79.1714 89.6836 82.3371 89.4118 85.1453 88.9541C85.8127 88.8396 86.4993 88.7109 87.181 88.5821C87.8628 88.4534 88.4683 88.3342 89.0881 88.2293C92.1346 87.7286 93.5506 87.9527 94.7187 89.1209C95.8867 90.2892 96.1108 91.7054 95.6102 94.7476C95.5053 95.3866 95.3814 96.0351 95.2526 96.6884C95.1239 97.3416 94.9952 98.0426 94.8855 98.7054C94.4088 101.495 94.1513 104.68 96.7116 107.241C99.2718 109.801 102.433 109.52 105.236 109.062C105.904 108.953 106.581 108.824 107.258 108.695C107.935 108.566 108.559 108.447 109.198 108.342C112.24 107.837 113.66 108.066 114.829 109.229C115.997 110.393 116.216 111.814 115.715 114.856C115.61 115.495 115.486 116.143 115.363 116.792C115.239 117.44 115.105 118.151 114.995 118.818C114.519 121.603 114.256 124.788 116.817 127.349C119.377 129.91 122.538 129.633 125.341 129.171C126.009 129.061 126.686 128.932 127.367 128.803C128.049 128.675 128.664 128.555 129.303 128.451C132.345 127.974 133.766 128.174 134.934 129.337C136.102 130.501 136.321 131.927 135.82 134.964C135.716 135.608 135.592 136.256 135.468 136.91C135.344 137.563 135.21 138.259 135.101 138.927C134.624 141.711 134.366 144.901 136.922 147.457C139.477 150.013 142.643 149.737 145.446 149.279C146.119 149.169 146.796 149.04 147.477 148.912C148.159 148.783 148.774 148.664 149.408 148.559C152.45 148.058 153.871 148.282 155.034 149.446C156.197 150.609 156.426 152.03 155.926 155.072C155.821 155.711 155.697 156.365 155.573 157.013C155.449 157.662 155.311 158.367 155.201 159.03C154.724 161.82 154.467 165.005 157.022 167.566C159.578 170.126 162.743 169.845 165.551 169.387C166.219 169.277 166.896 169.149 167.573 169.02C168.25 168.891 168.874 168.772 169.513 168.667C172.555 168.162 173.976 168.39 175.139 169.554C176.178 170.593 176.46 171.828 176.169 174.151C176.136 174.47 176.088 174.813 176.026 175.204C175.926 175.863 175.788 176.559 175.659 177.231C175.53 177.903 175.411 178.504 175.311 179.138C174.834 181.928 174.572 185.118 177.132 187.679C177.448 187.992 177.876 188.166 178.32 188.164C178.765 188.162 179.191 187.983 179.504 187.667C179.817 187.35 179.991 186.923 179.989 186.478C179.987 186.033 179.808 185.607 179.492 185.294C178.386 184.098 178.162 182.677 178.662 179.63Z" fill="black" fill-opacity="0.03"/>
  </g>
  <defs>
    <clipPath id="clip0_56_79">
      <rect width="214" height="214" fill="white"/>
    </clipPath>
  </defs>
</svg>