   <svg xmlns="http://www.w3.org/2000/svg" width="53" height="16" viewBox="0 0 53 16" fill="none">
  <path d="M14.5452 15.5519H11.703V5.49551C11.703 5.2991 11.6633 5.11579 11.5838 4.94556C11.5109 4.77534 11.4082 4.62803 11.2757 4.50363C11.1499 4.37269 11.0008 4.27121 10.8285 4.19919C10.6563 4.12717 10.4708 4.09116 10.272 4.09116C10.0733 4.09116 9.88778 4.12717 9.71554 4.19919C9.54329 4.27121 9.39091 4.37269 9.25841 4.50363C9.13253 4.62803 9.03315 4.77534 8.96028 4.94556C8.88741 5.11579 8.85097 5.2991 8.85097 5.49551V15.5519H5.9989V5.49551C5.9989 5.2991 5.96246 5.11579 5.88959 4.94556C5.81671 4.77534 5.71402 4.62803 5.58152 4.50363C5.45564 4.37269 5.30658 4.27121 5.13433 4.19919C4.96208 4.12717 4.77658 4.09116 4.57783 4.09116C4.37908 4.09116 4.19358 4.12717 4.02133 4.19919C3.84908 4.27121 3.6967 4.37269 3.5642 4.50363C3.43832 4.62803 3.33894 4.77534 3.26607 4.94556C3.1932 5.11579 3.15676 5.2991 3.15676 5.49551V15.5519H0.304688V5.49551C0.304688 4.91283 0.414 4.36615 0.632626 3.85547C0.857876 3.33824 1.16263 2.88977 1.54687 2.51003C1.93775 2.12375 2.39157 1.82259 2.90832 1.60653C3.43169 1.38393 3.98821 1.27263 4.57783 1.27263C5.10783 1.27263 5.61795 1.36756 6.10821 1.55743C6.59846 1.74075 7.03902 2.00919 7.4299 2.36273C7.82078 2.00919 8.25803 1.74075 8.74166 1.55743C9.23191 1.36756 9.74203 1.27263 10.272 1.27263C10.8617 1.27263 11.4149 1.38393 11.9316 1.60653C12.455 1.82259 12.9087 2.12375 13.293 2.51003C13.684 2.88977 13.9886 3.33824 14.2073 3.85547C14.4325 4.36615 14.5452 4.91283 14.5452 5.49551V15.5519Z" fill="#D1003F"/>
  <path d="M20.925 12.9789C21.031 13.0117 21.1371 13.0345 21.243 13.0476C21.3491 13.0542 21.4551 13.0574 21.561 13.0574C21.8261 13.0574 22.0812 13.0214 22.3263 12.9494C22.5714 12.8773 22.7999 12.7759 23.0119 12.6449C23.2306 12.5075 23.4226 12.3438 23.5884 12.1539C23.7606 11.9575 23.8997 11.7415 24.0057 11.5058L25.9932 13.4797C25.7414 13.8332 25.45 14.1508 25.1187 14.4324C24.7941 14.7138 24.4396 14.9529 24.0554 15.1493C23.6777 15.3456 23.277 15.493 22.8529 15.5912C22.4356 15.6959 22.0049 15.7483 21.561 15.7483C20.8125 15.7483 20.1069 15.6108 19.4443 15.3359C18.7885 15.0608 18.2122 14.6778 17.7152 14.1868C17.225 13.6958 16.8374 13.1131 16.5526 12.4388C16.2677 11.7578 16.1253 11.0115 16.1253 10.1996C16.1253 9.36813 16.2677 8.60867 16.5526 7.92122C16.8374 7.23377 17.225 6.64781 17.7152 6.16332C18.2122 5.67884 18.7885 5.30238 19.4443 5.03395C20.1069 4.76551 20.8125 4.63129 21.561 4.63129C22.0049 4.63129 22.4389 4.68368 22.8629 4.78843C23.2869 4.89319 23.6877 5.04377 24.0653 5.24019C24.4496 5.4366 24.8073 5.67884 25.1386 5.96691C25.4698 6.24843 25.7614 6.56598 26.0131 6.91952L20.925 12.9789ZM22.3163 7.44983C22.1904 7.404 22.0646 7.37454 21.9387 7.36145C21.8195 7.34835 21.6936 7.34181 21.561 7.34181C21.1901 7.34181 20.8389 7.41055 20.5077 7.54804C20.183 7.67898 19.8982 7.86885 19.6531 8.11763C19.4146 8.36643 19.2258 8.6676 19.0866 9.02114C18.9475 9.36813 18.878 9.76096 18.878 10.1996C18.878 10.2978 18.8812 10.4091 18.8878 10.5335C18.9011 10.6579 18.9177 10.7856 18.9375 10.9165C18.9641 11.0409 18.9939 11.162 19.027 11.2799C19.0602 11.3977 19.1031 11.5025 19.1562 11.5942L22.3163 7.44983Z" fill="#D1003F"/>
  <path d="M37.6102 15.5519H36.9543L35.901 14.1083C35.6425 14.3373 35.3676 14.5535 35.0761 14.7564C34.7913 14.9529 34.4898 15.1264 34.1718 15.277C33.8538 15.4209 33.5258 15.5355 33.188 15.6206C32.8568 15.7058 32.5188 15.7483 32.1744 15.7483C31.4257 15.7483 30.7202 15.624 30.0577 15.3752C29.4017 15.1264 28.8254 14.7662 28.3286 14.2948C27.8383 13.817 27.4508 13.2342 27.1658 12.5467C26.8809 11.8593 26.7385 11.0769 26.7385 10.1996C26.7385 9.38123 26.8809 8.63159 27.1658 7.95069C27.4508 7.26324 27.8383 6.674 28.3286 6.18296C28.8254 5.69194 29.4017 5.3122 30.0577 5.04377C30.7202 4.76879 31.4257 4.63129 32.1744 4.63129C32.5188 4.63129 32.86 4.67386 33.198 4.75897C33.5358 4.84408 33.8638 4.96193 34.1818 5.11251C34.4998 5.26309 34.8012 5.43986 35.0861 5.64283C35.3776 5.84579 35.6492 6.06512 35.901 6.30082L36.9543 5.05359H37.6102V15.5519ZM34.8774 10.1996C34.8774 9.83298 34.8045 9.47943 34.6587 9.13899C34.5196 8.792 34.3275 8.48755 34.0824 8.22567C33.8372 7.95723 33.549 7.74445 33.2178 7.58732C32.8932 7.42364 32.5454 7.34181 32.1744 7.34181C31.8034 7.34181 31.4523 7.404 31.121 7.5284C30.7964 7.6528 30.5114 7.83611 30.2663 8.07836C30.0278 8.3206 29.839 8.62177 29.6999 8.98185C29.5607 9.33541 29.4912 9.74132 29.4912 10.1996C29.4912 10.6579 29.5607 11.0671 29.6999 11.4272C29.839 11.7807 30.0278 12.0786 30.2663 12.3209C30.5114 12.5631 30.7964 12.7465 31.121 12.8708C31.4523 12.9953 31.8034 13.0574 32.1744 13.0574C32.5454 13.0574 32.8932 12.9789 33.2178 12.8218C33.549 12.658 33.8372 12.4453 34.0824 12.1834C34.3275 11.915 34.5196 11.6105 34.6587 11.2701C34.8045 10.9231 34.8774 10.5663 34.8774 10.1996Z" fill="#D1003F"/>
  <path d="M42.42 15.5519H39.6871V0.850342H42.42V15.5519Z" fill="#D1003F"/>
  <path d="M52.8046 15.5519H43.9304L48.4123 7.72481H43.9304V5.0536H52.8046L48.3228 12.8807H52.8046V15.5519Z" fill="#D1003F"/>
</svg>