<svg xmlns="http://www.w3.org/2000/svg" width="140" height="164" viewBox="0 0 140 164" fill="none">
  <g clip-path="url(#clip0_56_87)">
    <path d="M-11.6311 30.5743L33.9785 112.923L39.6423 123.143L61.425 162.487C61.678 162.946 62.0491 163.328 62.4995 163.594C62.9499 163.86 63.4633 164.001 63.9863 164.001C64.5092 164.001 65.0226 163.86 65.473 163.594C65.9234 163.328 66.2945 162.946 66.5475 162.487L139.628 30.5743C139.972 29.9527 140.08 29.2268 139.93 28.5317C139.781 27.8365 139.384 27.2196 138.814 26.7957C138.449 26.5228 129.645 19.9983 116.021 13.4013C103.408 7.28781 84.1385 0 64 0C52.8863 0 34.8369 2.3245 11.9752 13.4013C-1.65841 19.9983 -10.4522 26.5228 -10.8176 26.7957C-11.3874 27.2196 -11.784 27.8365 -11.9337 28.5317C-12.0834 29.2268 -11.9758 29.9527 -11.6311 30.5743ZM46.6021 123.579C49.2321 122.583 51.6173 121.032 53.5956 119.031C55.574 117.03 57.099 114.625 58.067 111.981C59.035 109.336 59.4233 106.514 59.2055 103.705C58.9878 100.897 58.169 98.1688 56.8048 95.7058C55.4407 93.2429 53.5633 91.1032 51.3001 89.4321C49.037 87.7611 46.4413 86.598 43.6894 86.0218C40.9376 85.4456 38.0942 85.47 35.3526 86.0931C32.611 86.7163 30.0355 87.9237 27.8012 89.6332L4.48101 47.5608C17.9905 39.4544 40.473 26.0254 64 26.0254C87.5271 26.0254 110.01 39.4544 123.519 47.5608L63.9966 155.013L46.6021 123.579ZM37.4223 107L30.6865 94.8348C32.2294 93.4938 34.0517 92.5147 36.0204 91.9691C37.9891 91.4235 40.0544 91.3251 42.0659 91.6811C44.0773 92.0371 45.9841 92.8385 47.6471 94.0268C49.3101 95.2152 50.6874 96.7604 51.6784 98.55C52.6695 100.34 53.2494 102.328 53.3758 104.371C53.5022 106.414 53.1719 108.459 52.409 110.357C51.6461 112.256 50.4699 113.96 48.9661 115.345C47.4624 116.73 45.669 117.761 43.7168 118.363L37.4223 107ZM-5.22625 30.0493C2.79879 24.6059 32.6927 5.8717 64 5.8717C95.3073 5.8717 125.198 24.5921 133.226 30.0493L126.366 42.4351C112.316 33.9937 89.0438 20.1537 64 20.1537C38.9563 20.1537 15.6843 33.9937 1.63364 42.4247L-5.22625 30.0493Z" fill="black" fill-opacity="0.03"/>
    <path d="M61.0803 64.789C61.0803 69.1515 62.3714 73.4159 64.7903 77.0432C67.2092 80.6704 70.6473 83.4975 74.6697 85.1669C78.6922 86.8364 83.1184 87.2732 87.3887 86.4221C91.6589 85.571 95.5814 83.4703 98.6601 80.3856C101.739 77.3009 103.835 73.3707 104.685 69.0921C105.534 64.8135 105.098 60.3786 103.432 56.3482C101.766 52.3179 98.9443 48.8731 95.3242 46.4494C91.704 44.0258 87.4479 42.7322 83.094 42.7322C77.2576 42.7386 71.662 45.0645 67.535 49.1996C63.4081 53.3346 61.0867 58.9412 61.0803 64.789ZM66.9405 64.789C66.9398 61.5878 67.8867 58.4582 69.6612 55.7961C71.4358 53.134 73.9584 51.059 76.91 49.8334C79.8616 48.6079 83.1096 48.2869 86.2433 48.911C89.377 49.5351 92.2556 51.0763 94.515 53.3397C96.7745 55.6031 98.3133 58.487 98.9369 61.6267C99.5604 64.7665 99.2408 68.0209 98.0182 70.9786C96.7957 73.9362 94.7253 76.4642 92.0688 78.2428C89.4123 80.0214 86.289 80.9707 83.094 80.9707C78.8118 80.9662 74.7063 79.26 71.678 76.2264C68.6498 73.1928 66.946 69.0796 66.9405 64.789Z" fill="black" fill-opacity="0.03"/>
    <path d="M42.6001 61.3351C42.6008 58.8544 41.8672 56.4292 40.4921 54.3663C39.117 52.3033 37.1622 50.6954 34.8749 49.7457C32.5876 48.7961 30.0707 48.5474 27.6423 49.0312C25.214 49.515 22.9834 50.7095 21.2327 52.4637C19.482 54.2178 18.2898 56.4528 17.807 58.8858C17.3241 61.3189 17.5723 63.8408 18.5201 66.1326C19.4679 68.4244 21.0727 70.383 23.1316 71.7608C25.1905 73.1386 27.6109 73.8736 30.0868 73.8729C33.4041 73.8684 36.5843 72.5459 38.93 70.1956C41.2757 67.8453 42.5955 64.659 42.6001 61.3351ZM36.7399 61.3351C36.7399 62.6544 36.3494 63.944 35.6178 65.0409C34.8862 66.1378 33.8464 66.9926 32.6299 67.4973C31.4134 68.002 30.0748 68.1339 28.7835 67.8763C27.4922 67.6187 26.3061 66.9831 25.3753 66.05C24.4445 65.1169 23.8108 63.9282 23.5543 62.6342C23.2979 61.3402 23.4302 59.999 23.9346 58.7804C24.4389 57.5618 25.2926 56.5204 26.3877 55.7879C27.4828 55.0555 28.7701 54.6649 30.0868 54.6656C31.8514 54.6674 33.543 55.3708 34.7904 56.6213C36.0378 57.8717 36.739 59.5671 36.7399 61.3351Z" fill="black" fill-opacity="0.03"/>
    <path d="M81.6737 105.691C82.0406 105.807 82.3811 105.995 82.6756 106.243C82.9702 106.491 83.213 106.795 83.3904 107.137C83.5677 107.479 83.676 107.853 83.7092 108.237C83.7423 108.621 83.6996 109.008 83.5835 109.376C83.4674 109.744 83.2801 110.085 83.0324 110.38C82.7847 110.675 82.4815 110.918 82.1399 111.096C81.7984 111.274 81.4252 111.382 81.0418 111.415C80.6584 111.449 80.2722 111.406 79.9053 111.289C77.9049 110.659 75.7368 110.849 73.8755 111.817C72.0142 112.784 70.6114 114.451 69.974 116.453C69.8577 116.821 69.6702 117.162 69.4223 117.457C69.1744 117.752 68.8709 117.995 68.5292 118.173C68.1875 118.35 67.8143 118.458 67.4308 118.491C67.0473 118.524 66.661 118.481 66.2941 118.365C65.9272 118.248 65.5868 118.06 65.2924 117.812C64.9979 117.564 64.7552 117.26 64.578 116.917C64.4008 116.575 64.2927 116.201 64.2598 115.817C64.2268 115.432 64.2698 115.045 64.3861 114.678C65.4931 111.192 67.9347 108.288 71.1755 106.603C74.4164 104.918 78.1918 104.59 81.6737 105.691Z" fill="black" fill-opacity="0.03"/>
    <path d="M87.1651 52.3513C87.4704 52.448 87.725 52.6622 87.8727 52.9469C88.0204 53.2315 88.0492 53.5634 87.9528 53.8693C87.8563 54.1753 87.6425 54.4303 87.3584 54.5783C87.0742 54.7263 86.7431 54.7552 86.4377 54.6585C83.7672 53.8129 80.8709 54.0635 78.3846 55.3554C75.8983 56.6473 74.0252 58.8749 73.1764 61.5492C73.08 61.8551 72.8662 62.1101 72.582 62.2582C72.2979 62.4062 71.9667 62.435 71.6614 62.3384C71.356 62.2417 71.1015 62.0275 70.9538 61.7428C70.806 61.4581 70.7772 61.1263 70.8737 60.8204C71.9165 57.535 74.2174 54.7982 77.2716 53.2105C80.3258 51.6228 83.8838 51.3138 87.1651 52.3513Z" fill="black" fill-opacity="0.03"/>
    <path d="M42.9827 94.2615C45.9218 95.5171 48.2439 97.8895 49.4395 100.858C50.635 103.827 50.6064 107.15 49.3599 110.098C49.2673 110.316 49.1127 110.502 48.9153 110.633C48.718 110.764 48.4866 110.833 48.25 110.834C48.0506 110.833 47.8544 110.784 47.6788 110.689C47.5032 110.595 47.3537 110.458 47.2438 110.291C47.1338 110.125 47.0668 109.933 47.0487 109.734C47.0306 109.536 47.0619 109.335 47.14 109.151C48.1367 106.795 48.1605 104.139 47.2061 101.765C46.2518 99.3905 44.3971 97.4923 42.0485 96.4858C41.8996 96.4258 41.7643 96.3367 41.6502 96.2236C41.5362 96.1105 41.4459 95.9758 41.3844 95.8273C41.323 95.6788 41.2917 95.5195 41.2925 95.3588C41.2932 95.198 41.326 95.039 41.3888 94.8911C41.4516 94.7432 41.5432 94.6093 41.6583 94.4973C41.7734 94.3853 41.9096 94.2974 42.0589 94.2388C42.2083 94.1802 42.3679 94.152 42.5283 94.1559C42.6886 94.1598 42.8466 94.1957 42.993 94.2615H42.9827Z" fill="black" fill-opacity="0.03"/>
    <path d="M49.0153 54.6655C48.7362 54.6658 48.4587 54.6251 48.1914 54.5446C47.8221 54.4367 47.4776 54.2569 47.1777 54.0155C46.8778 53.774 46.6283 53.4757 46.4436 53.1376C46.2588 52.7995 46.1424 52.4282 46.1011 52.045C46.0597 51.6617 46.0941 51.2741 46.2024 50.9042C46.6066 49.5045 46.4402 48.0013 45.7396 46.7244C45.0391 45.4475 43.8617 44.5012 42.4656 44.093C42.0962 43.9851 41.7517 43.8053 41.4516 43.5639C41.1516 43.3225 40.9019 43.0243 40.7169 42.6862C40.5319 42.3482 40.4151 41.977 40.3733 41.5937C40.3315 41.2104 40.3654 40.8227 40.4732 40.4526C40.5809 40.0824 40.7603 39.7372 41.0012 39.4366C41.2421 39.1359 41.5398 38.8858 41.8772 38.7004C42.2146 38.515 42.5851 38.398 42.9676 38.3561C43.3501 38.3142 43.7371 38.3482 44.1065 38.4562C46.9928 39.3033 49.4257 41.2634 50.8708 43.9062C52.316 46.549 52.6554 49.6584 51.8144 52.5517C51.6375 53.1593 51.2695 53.6933 50.7651 54.0742C50.2607 54.4551 49.6469 54.6625 49.0153 54.6655Z" fill="black" fill-opacity="0.03"/>
  </g>
  <defs>
    <clipPath id="clip0_56_87">
      <rect width="152" height="164" fill="white" transform="translate(-12)"/>
    </clipPath>
  </defs>
</svg>